<svg xmlns="http://www.w3.org/2000/svg" viewBox="0 0 30 30"><title>class</title><g id="Слой_2" data-name="Слой 2"><g id="Слой_1-2" data-name="Слой 1"><path d="M24.61,24.84v-.13c0-1-.09-3.42-2.12-4.18l0,0a12.79,12.79,0,0,1-3.88-2,.6.6,0,0,0-.88.17.74.74,0,0,0,.15,1,14.24,14.24,0,0,0,4.27,2.16c1.1.43,1.22,1.71,1.25,2.9v.12a10.29,10.29,0,0,1-.09,1.6A15.94,15.94,0,0,1,15,28.61a16,16,0,0,1-8.26-2.13,10.29,10.29,0,0,1-.09-1.6v-.13c0-1.18.15-2.47,1.25-2.9a14,14,0,0,0,4.27-2.16.73.73,0,0,0,.15-1,.59.59,0,0,0-.88-.17A12.74,12.74,0,0,1,7.56,20.5l0,0c-2,.77-2.09,3.17-2.12,4.19v.13h0a8.8,8.8,0,0,0,.23,2.35.75.75,0,0,0,.25.33A16.5,16.5,0,0,0,15,30a16.64,16.64,0,0,0,9.14-2.47.81.81,0,0,0,.24-.33,9.08,9.08,0,0,0,.22-2.34Z"/><path d="M5.71,8.07H5.8a2.43,2.43,0,0,0,2-1,6.14,6.14,0,0,0,.88-3.87A3.22,3.22,0,0,0,7.29.44,2.81,2.81,0,0,0,5.79,0h0A3,3,0,0,0,4.23.42,3.25,3.25,0,0,0,2.85,3.25a6.14,6.14,0,0,0,.88,3.87A2.45,2.45,0,0,0,5.71,8.07ZM3.6,3.33v0C3.7,1.08,5.12.84,5.73.84h0c.76,0,2,.36,2.13,2.46v0a5.29,5.29,0,0,1-.69,3.24,1.73,1.73,0,0,1-1.44.66h0A1.73,1.73,0,0,1,4.3,6.57,5.4,5.4,0,0,1,3.6,3.33Z"/><path d="M24.17,8.07h.09a2.46,2.46,0,0,0,2-1,6.14,6.14,0,0,0,.88-3.87A3.25,3.25,0,0,0,25.76.44,2.87,2.87,0,0,0,24.25,0H24.2a3,3,0,0,0-1.51.42,3.25,3.25,0,0,0-1.38,2.83,6.14,6.14,0,0,0,.88,3.87A2.45,2.45,0,0,0,24.17,8.07ZM22.06,3.33v0C22.16,1.08,23.58.84,24.2.84h0c.76,0,2.05.36,2.13,2.46a0,0,0,0,0,0,0,5.4,5.4,0,0,1-.7,3.24,1.73,1.73,0,0,1-1.44.66h0a1.73,1.73,0,0,1-1.44-.66A5.4,5.4,0,0,1,22.06,3.33Z"/><path d="M30,11.92h0v-.08c0-.62-.06-2.06-1.28-2.51h0a8,8,0,0,1-2.34-1.18.35.35,0,0,0-.52.1.46.46,0,0,0,.09.59,8.18,8.18,0,0,0,2.56,1.29c.66.26.73,1,.75,1.74v.08a5,5,0,0,1-.06,1,9.49,9.49,0,0,1-4.95,1.27,9.91,9.91,0,0,1-4.49-1,13.85,13.85,0,0,0,.07-2.72,1,1,0,0,0,0-.18.83.83,0,0,1,.18-.13,8.33,8.33,0,0,0,2.56-1.3.45.45,0,0,0,.1-.58.35.35,0,0,0-.53-.1A7.56,7.56,0,0,1,19.77,9.3h0l0,0a5,5,0,0,0-2.15-3.61A4.79,4.79,0,0,0,15,5H15a4.79,4.79,0,0,0-2.52.71,5,5,0,0,0-2.17,3.6h0A7.86,7.86,0,0,1,7.9,8.13a.36.36,0,0,0-.53.1.46.46,0,0,0,.1.59A8.18,8.18,0,0,0,10,10.11c.05,0,.08.07.13.09a1.64,1.64,0,0,0,0,.22,13.32,13.32,0,0,0,.07,2.75,9.92,9.92,0,0,1-4.44,1A9.67,9.67,0,0,1,.82,12.89a5,5,0,0,1-.06-1v-.08c0-.71.09-1.48.75-1.74a8.33,8.33,0,0,0,2.56-1.3.44.44,0,0,0,.09-.58.34.34,0,0,0-.52-.1A7.68,7.68,0,0,1,1.3,9.3h0C.06,9.77,0,11.21,0,11.83v.07H0a5.79,5.79,0,0,0,.14,1.41.43.43,0,0,0,.15.2A9.89,9.89,0,0,0,5.77,15a10.79,10.79,0,0,0,4.59-1,6.76,6.76,0,0,0,1.25,2.85,4.1,4.1,0,0,0,3.29,1.58h.15a4.11,4.11,0,0,0,3.29-1.58A6.7,6.7,0,0,0,19.59,14a10.67,10.67,0,0,0,4.64,1,10.08,10.08,0,0,0,5.49-1.48.41.41,0,0,0,.14-.2A5.68,5.68,0,0,0,30,11.92ZM17.4,16A2.93,2.93,0,0,1,15,17.05h0A3,3,0,0,1,12.54,16a6.06,6.06,0,0,1-1.08-2.89,7.18,7.18,0,0,0,.08-1.14h0s0-.05,0-.08a4.55,4.55,0,0,0-.15-1.21V10.5c.15-3.7,2.53-4.1,3.55-4.1H15c1.26,0,3.41.6,3.55,4.1,0,0,0,0,0,0s0,.11,0,.26a4.81,4.81,0,0,0-.11,1,.17.17,0,0,1,0,.07h0a8.1,8.1,0,0,0,.05.94A6.29,6.29,0,0,1,17.4,16Z"/></g></g></svg>