<svg fill="#ffffff" xmlns="http://www.w3.org/2000/svg" viewBox="0 0 30 30"><title>class_edit</title><g id="Слой_2" data-name="Слой 2"><g id="Слой_1-2" data-name="Слой 1"><path d="M4.92,7H5a2.14,2.14,0,0,0,1.7-.82A5.3,5.3,0,0,0,7.46,2.8,2.8,2.8,0,0,0,6.29.38,2.48,2.48,0,0,0,5,0H5a2.46,2.46,0,0,0-1.3.37A2.77,2.77,0,0,0,2.46,2.8a5.3,5.3,0,0,0,.76,3.34A2.14,2.14,0,0,0,4.92,7ZM3.1,2.87v0C3.19.93,4.42.72,4.94.72H5c.66,0,1.77.31,1.84,2.13v0a4.5,4.5,0,0,1-.59,2.79A1.54,1.54,0,0,1,5,6.24H5A1.54,1.54,0,0,1,3.7,5.66,4.7,4.7,0,0,1,3.1,2.87Z"/><path d="M20.83,7h.08a2.17,2.17,0,0,0,1.71-.82,5.37,5.37,0,0,0,.76-3.34A2.78,2.78,0,0,0,22.2.38,2.45,2.45,0,0,0,20.9,0h0a2.49,2.49,0,0,0-1.3.37A2.77,2.77,0,0,0,18.37,2.8a5.37,5.37,0,0,0,.76,3.34A2.15,2.15,0,0,0,20.83,7ZM19,2.87v0C19.1.93,20.33.72,20.86.72h0c.65,0,1.76.31,1.84,2.13v0a4.61,4.61,0,0,1-.6,2.79,1.52,1.52,0,0,1-1.24.58h0a1.52,1.52,0,0,1-1.24-.58A4.62,4.62,0,0,1,19,2.87Z"/><path d="M8.93,12.08A5.94,5.94,0,0,0,10,14.55a3.59,3.59,0,0,0,2.84,1.36H13a3.58,3.58,0,0,0,2.84-1.36,6,6,0,0,0,1.08-2.49,9.16,9.16,0,0,0,4,.87,8.53,8.53,0,0,0,4.73-1.28.45.45,0,0,0,.13-.17,4.83,4.83,0,0,0,.11-1.21h0V10.2c0-.53-.05-1.77-1.1-2.17h0a6.79,6.79,0,0,1-2-1,.31.31,0,0,0-.46.09.38.38,0,0,0,.08.5,7.27,7.27,0,0,0,2.21,1.12c.57.22.63.89.65,1.5v.07a5.39,5.39,0,0,1-.05.82,8.2,8.2,0,0,1-4.27,1.1A8.7,8.7,0,0,1,17,11.33,11.82,11.82,0,0,0,17.08,9c0-.05,0-.1,0-.16a.78.78,0,0,1,.15-.1A7.38,7.38,0,0,0,19.42,7.6a.37.37,0,0,0,.08-.5A.29.29,0,0,0,19.05,7a6.63,6.63,0,0,1-2,1h0l0,0a4.29,4.29,0,0,0-1.86-3.11A4.12,4.12,0,0,0,13,4.31h-.06a4.14,4.14,0,0,0-2.17.61A4.3,4.3,0,0,0,8.84,8h0a6.79,6.79,0,0,1-2-1,.29.29,0,0,0-.45.09.37.37,0,0,0,.08.5A7.13,7.13,0,0,0,8.65,8.72l.11.08a1.1,1.1,0,0,0,0,.18,11.23,11.23,0,0,0,.07,2.37A8.55,8.55,0,0,1,5,12.21,8.31,8.31,0,0,1,.7,11.11a5.53,5.53,0,0,1,0-.83v-.06c0-.62.08-1.28.65-1.5A7.53,7.53,0,0,0,3.51,7.6a.39.39,0,0,0,.08-.5A.3.3,0,0,0,3.13,7a6.63,6.63,0,0,1-2,1h0C.05,8.43,0,9.67,0,10.19v.07H0a5,5,0,0,0,.12,1.21.37.37,0,0,0,.13.17A8.53,8.53,0,0,0,5,12.93,9.13,9.13,0,0,0,8.93,12.08Zm.88-3v0C10,5.86,12,5.51,12.88,5.51h0C14,5.54,15.87,6,16,9.05c0,0,0,0,0,0s0,.09,0,.22a4.57,4.57,0,0,0-.09.88v.07h0a4.93,4.93,0,0,0,0,.8A5.26,5.26,0,0,1,15,13.75a2.53,2.53,0,0,1-2.07.95h0a2.55,2.55,0,0,1-2.08-.95,5.24,5.24,0,0,1-.93-2.49,6.13,6.13,0,0,0,.07-1h0s0,0,0-.06a4,4,0,0,0-.13-1Z"/><path d="M29.42,15.06a2,2,0,0,0-2.8,0l-.94.94,2.81,2.8.93-.94A2,2,0,0,0,29.42,15.06Z"/><path d="M21.17,20.51a3.09,3.09,0,0,0-1.78-2.82h0A10.84,10.84,0,0,1,16,16a.52.52,0,0,0-.76.15.63.63,0,0,0,.13.84,12.25,12.25,0,0,0,3.69,1.86c.94.37,1,1.48,1.07,2.5v.21l-2.31,2.31a15,15,0,0,1-4.89.8,13.88,13.88,0,0,1-7.12-1.83,8.83,8.83,0,0,1-.08-1.38v-.11c0-1,.14-2.13,1.08-2.5A12.38,12.38,0,0,0,10.49,17a.63.63,0,0,0,.13-.84A.5.5,0,0,0,9.87,16a11.51,11.51,0,0,1-3.35,1.69h0c-1.76.66-1.81,2.73-1.83,3.61a.37.37,0,0,1,0,.11v0a7.49,7.49,0,0,0,.21,2,.58.58,0,0,0,.21.28,14.19,14.19,0,0,0,7.88,2.13,16.12,16.12,0,0,0,3.19-.31l-.71.72L14.48,30l3.74-.93,9.33-9.34-2.8-2.8Z"/></g></g></svg>