<svg fill="#ffffff" xmlns="http://www.w3.org/2000/svg" viewBox="0 0 30 30"><title>class_manage</title><g id="Слой_2" data-name="Слой 2"><g id="Слой_1-2" data-name="Слой 1"><path d="M5,7.08h.07a2.15,2.15,0,0,0,1.74-.83,5.37,5.37,0,0,0,.77-3.4A2.85,2.85,0,0,0,6.4.38,2.56,2.56,0,0,0,5.07,0H5A2.54,2.54,0,0,0,3.71.37,2.84,2.84,0,0,0,2.5,2.85a5.44,5.44,0,0,0,.77,3.4A2.17,2.17,0,0,0,5,7.08ZM3.16,2.92v0C3.24.94,4.49.74,5,.74h0c.66,0,1.79.31,1.87,2.16v0a4.61,4.61,0,0,1-.6,2.84,1.53,1.53,0,0,1-1.27.58H5a1.51,1.51,0,0,1-1.26-.58A4.73,4.73,0,0,1,3.16,2.92Z"/><path d="M21.2,7.08h.08A2.15,2.15,0,0,0,23,6.25a5.46,5.46,0,0,0,.78-3.4A2.88,2.88,0,0,0,22.59.38,2.52,2.52,0,0,0,21.27,0h0A2.58,2.58,0,0,0,19.9.37a2.86,2.86,0,0,0-1.2,2.48,5.37,5.37,0,0,0,.77,3.4A2.15,2.15,0,0,0,21.2,7.08ZM19.35,2.92v0c.09-2,1.34-2.16,1.88-2.16h0c.67,0,1.8.31,1.87,2.16a0,0,0,0,0,0,0,4.72,4.72,0,0,1-.61,2.84,1.51,1.51,0,0,1-1.27.58h0A1.53,1.53,0,0,1,20,5.76,4.73,4.73,0,0,1,19.35,2.92Z"/><path d="M9.09,12.3a5.89,5.89,0,0,0,1.09,2.5,3.63,3.63,0,0,0,2.89,1.39h.13a3.64,3.64,0,0,0,2.89-1.39,6,6,0,0,0,1.1-2.53,9.25,9.25,0,0,0,4.07.89,8.76,8.76,0,0,0,4.81-1.3.46.46,0,0,0,.13-.18,5.11,5.11,0,0,0,.12-1.23h0s0,0,0-.06c0-.54,0-1.81-1.11-2.21h0a6.67,6.67,0,0,1-2-1,.33.33,0,0,0-.47.09.41.41,0,0,0,.08.52A7.79,7.79,0,0,0,25,8.87c.58.23.64.91.66,1.53v.07a5.75,5.75,0,0,1,0,.84,8.41,8.41,0,0,1-4.34,1.11,8.78,8.78,0,0,1-4-.89,12.23,12.23,0,0,0,.07-2.39c0-.06,0-.11,0-.16a.46.46,0,0,1,.16-.11,7.69,7.69,0,0,0,2.25-1.14.39.39,0,0,0,.08-.51.32.32,0,0,0-.47-.09,6.67,6.67,0,0,1-2,1h0l0,0A4.38,4.38,0,0,0,15.39,5a4.12,4.12,0,0,0-2.21-.64h-.07a4.19,4.19,0,0,0-2.2.62A4.36,4.36,0,0,0,9,8.17H9a6.79,6.79,0,0,1-2.05-1,.32.32,0,0,0-.46.09.4.4,0,0,0,.08.52A7.48,7.48,0,0,0,8.8,8.87s.07.06.11.08a1.23,1.23,0,0,1,0,.19A12.43,12.43,0,0,0,9,11.55a8.76,8.76,0,0,1-3.9.87A8.31,8.31,0,0,1,.72,11.3a5.53,5.53,0,0,1-.06-.84s0,0,0-.07c0-.62.08-1.3.65-1.52A7.38,7.38,0,0,0,3.57,7.73a.38.38,0,0,0,.08-.51.3.3,0,0,0-.46-.09,6.64,6.64,0,0,1-2,1h0C.05,8.57,0,9.84,0,10.37v.07H0a4.73,4.73,0,0,0,.13,1.23.44.44,0,0,0,.12.18,8.76,8.76,0,0,0,4.81,1.3A9.57,9.57,0,0,0,9.09,12.3ZM10,9.25v0c.14-3.25,2.22-3.6,3.12-3.6h.05c1.1,0,3,.53,3.11,3.6,0,0,0,0,0,0s0,.09,0,.22a4.83,4.83,0,0,0-.09.9.15.15,0,0,1,0,.07h0a7.67,7.67,0,0,0,0,.82,5.44,5.44,0,0,1-1,2.72,2.6,2.6,0,0,1-2.12,1h0A2.59,2.59,0,0,1,11,14a5.3,5.3,0,0,1-.94-2.54,7.26,7.26,0,0,0,.06-1h0v-.06A4.22,4.22,0,0,0,10,9.32Z"/><path d="M29.92,20.74a.38.38,0,0,0-.22-.13l-1.88-.28a5.7,5.7,0,0,0-.42-1c.12-.17.31-.41.55-.73s.43-.53.53-.68a.41.41,0,0,0,.08-.24.31.31,0,0,0-.07-.22,14.23,14.23,0,0,0-1.7-1.75.38.38,0,0,0-.25-.1.33.33,0,0,0-.25.09l-1.46,1.1a6.67,6.67,0,0,0-.93-.38l-.28-1.89a.32.32,0,0,0-.12-.22.38.38,0,0,0-.25-.09H21a.36.36,0,0,0-.37.29c-.08.34-.18,1-.29,1.91a5.17,5.17,0,0,0-.94.39l-1.42-1.1a.43.43,0,0,0-.27-.1c-.15,0-.47.24-1,.73l-.14.15a2.37,2.37,0,0,1-.28-.21.54.54,0,0,0-.78.15.67.67,0,0,0,.14.86l.11.08-.06.08a.45.45,0,0,0-.09.23.36.36,0,0,0,.1.25c.46.56.83,1,1.1,1.42a5.5,5.5,0,0,0-.4.95l-1.91.28a.34.34,0,0,0-.2.14.4.4,0,0,0-.08.23v2.29a.43.43,0,0,0,.08.24.38.38,0,0,0,.22.13l1.88.27a5.44,5.44,0,0,0,.32.81,15.26,15.26,0,0,1-3.55.41,14,14,0,0,1-7.24-1.86,8.09,8.09,0,0,1-.09-1.41v-.11c0-1,.14-2.17,1.1-2.54a12.42,12.42,0,0,0,3.75-1.9.64.64,0,0,0,.13-.85.51.51,0,0,0-.77-.15A11.62,11.62,0,0,1,6.63,18h0c-1.78.68-1.84,2.78-1.86,3.67a.45.45,0,0,1,0,.12h0a8.21,8.21,0,0,0,.21,2.06.52.52,0,0,0,.22.28,14.28,14.28,0,0,0,8,2.18,17.39,17.39,0,0,0,2.73-.23l-.16.21a.41.41,0,0,0-.08.24.39.39,0,0,0,.07.23,13.3,13.3,0,0,0,1.7,1.73.36.36,0,0,0,.25.11.37.37,0,0,0,.26-.09l1.45-1.1a6.67,6.67,0,0,0,.93.38l.28,1.89a.32.32,0,0,0,.12.22A.38.38,0,0,0,21,30h2.29a.35.35,0,0,0,.37-.29,15,15,0,0,0,.29-1.91,5.17,5.17,0,0,0,.94-.39l1.42,1.11a.48.48,0,0,0,.27.09c.15,0,.47-.24,1-.73a8.44,8.44,0,0,0,1-1.11.35.35,0,0,0,.09-.23.39.39,0,0,0-.1-.26c-.49-.6-.86-1.08-1.1-1.42a6.16,6.16,0,0,0,.4-.94l1.9-.28a.36.36,0,0,0,.21-.14.4.4,0,0,0,.08-.23V21A.46.46,0,0,0,29.92,20.74ZM24,24a2.63,2.63,0,0,1-3.72,0,2.63,2.63,0,0,1,1.86-4.48,2.5,2.5,0,0,1,1.86.77A2.62,2.62,0,0,1,24,24Z"/></g></g></svg>