<svg fill="#ffffff" xmlns="http://www.w3.org/2000/svg" viewBox="0 0 30 30"><title>content_edit</title><g id="Слой_2" data-name="Слой 2"><g id="Слой_1-2" data-name="Слой 1"><path d="M29.42,15.06a2,2,0,0,0-2.8,0l-.76.76V5.24h0a.55.55,0,0,0-.23-.42L19.44.18h0A.92.92,0,0,0,18.87,0H1.7C.76,0,0,.57,0,1.27V24.59c0,.7.76,1.27,1.7,1.27H15.82l-.4.41L14.48,30l3.74-.93,3.2-3.21h2.74c.94,0,1.7-.57,1.7-1.27V21.42l1.69-1.69L25.86,18V16.17l2.63,2.63.93-.94A2,2,0,0,0,29.42,15.06Zm-9.75-13,3.42,2.57H19.75a.07.07,0,0,1-.08-.07ZM1.7,24.65c-.05,0-.08,0-.08-.06V1.28a.07.07,0,0,1,.08-.07H18.05V4.58c0,.71.76,1.28,1.7,1.28h4.5V17.44L17,24.65Zm22.55,0h0s-.09,0-.09,0H22.63L24.25,23Z"/><path d="M5.77,9.5H20.06A.79.79,0,0,0,20.87,9c.09-.38-.3-.71-.79-.71H5.8A.79.79,0,0,0,5,8.79C4.89,9.17,5.28,9.5,5.77,9.5Z"/><path d="M20.08,12H5.8a.79.79,0,0,0-.82.51c-.09.38.3.7.79.7H20.06a.79.79,0,0,0,.81-.5C21,12.3,20.57,12,20.08,12Z"/><path d="M20.08,15.61H5.8a.8.8,0,0,0-.82.5c-.08.38.3.71.79.71H20.06a.79.79,0,0,0,.81-.51C21,15.94,20.57,15.61,20.08,15.61Z"/><path d="M12.93,19.25H5.8a.8.8,0,0,0-.82.5c-.08.38.31.71.8.71h7.13a.8.8,0,0,0,.82-.51C13.81,19.57,13.42,19.25,12.93,19.25Z"/></g></g></svg>