<svg xmlns="http://www.w3.org/2000/svg" viewBox="0 0 30 30"><title>content</title><g id="Слой_2" data-name="Слой 2"><g id="Слой_1-2" data-name="Слой 1"><path d="M30,6.07a.65.65,0,0,0-.27-.49L22.56.21h0A1.08,1.08,0,0,0,21.89,0H2C.88,0,0,.66,0,1.48v27C0,29.34.88,30,2,30H28c1.09,0,2-.66,2-1.48V6.08ZM22.81,2.41l4,3H22.91c-.05,0-.1,0-.1-.07V2.41Zm5.31,26.13s-.1.05-.1.05H2c-.05,0-.1,0-.1-.07v-27s0-.07.1-.07h19V5.32c0,.81.88,1.48,2,1.48h5.21V28.54Z"/><path d="M23.29,9.61H6.72a.93.93,0,0,0-1,.59c-.09.44.36.82.93.82H23.26a.92.92,0,0,0,.95-.59C24.31,10,23.86,9.61,23.29,9.61Z"/><path d="M23.29,13.89H6.72a.93.93,0,0,0-1,.58c-.09.44.36.82.93.82H23.26a.91.91,0,0,0,.95-.58C24.31,14.27,23.86,13.89,23.29,13.89Z"/><path d="M23.29,18.11H6.72a.93.93,0,0,0-1,.58c-.09.44.36.82.93.82H23.26a.91.91,0,0,0,.95-.59C24.31,18.49,23.86,18.11,23.29,18.11Z"/><path d="M15,22.32H6.73a.92.92,0,0,0-1,.59c-.1.44.35.82.92.82H15a.91.91,0,0,0,.95-.59C16,22.7,15.57,22.32,15,22.32Z"/></g></g></svg>