<svg fill="#ffffff" xmlns="http://www.w3.org/2000/svg" viewBox="0 0 30 30"><title>content_manage</title><g id="Слой_2" data-name="Слой 2"><g id="Слой_1-2" data-name="Слой 1"><path d="M29.92,21.06a.33.33,0,0,0-.21-.13l-1.82-.28a5.54,5.54,0,0,0-.4-1L28,19q.36-.45.51-.66a.4.4,0,0,0,.08-.23.32.32,0,0,0-.07-.22,13.41,13.41,0,0,0-1.64-1.68.36.36,0,0,0-.25-.1.32.32,0,0,0-.24.09l-1,.74V5.15h0a.52.52,0,0,0-.23-.42L19.11.17h0A1,1,0,0,0,18.55,0H1.67C.75,0,0,.56,0,1.25V24.17c0,.69.75,1.25,1.67,1.25H17l-.27.34c-.24.31-.41.53-.5.66a.36.36,0,0,0-.08.23.35.35,0,0,0,.07.23,12.14,12.14,0,0,0,1.63,1.67.38.38,0,0,0,.25.11.37.37,0,0,0,.25-.09l1.4-1.06a5.28,5.28,0,0,0,.9.36l.27,1.83a.32.32,0,0,0,.12.22.41.41,0,0,0,.24.08h2.21a.32.32,0,0,0,.35-.28,13.86,13.86,0,0,0,.29-1.85,5,5,0,0,0,.9-.37l1.38,1.07a.45.45,0,0,0,.25.09c.15,0,.46-.24.94-.71a10.4,10.4,0,0,0,1-1.07.32.32,0,0,0,.09-.23.38.38,0,0,0-.1-.25c-.48-.58-.83-1-1.06-1.37a5.66,5.66,0,0,0,.38-.9l1.84-.28a.27.27,0,0,0,.2-.13.4.4,0,0,0,.08-.23v-2.2A.38.38,0,0,0,29.92,21.06ZM19.33,2,22.7,4.57H19.42c-.05,0-.09,0-.09-.06Zm.39,15.21-.92-.71h.92a.78.78,0,0,0,.8-.5c.08-.37-.3-.7-.78-.7H5.7a.78.78,0,0,0-.81.5c-.08.37.3.7.79.7H17.43a3.2,3.2,0,0,0-.28.26,9.92,9.92,0,0,0-1,1.06.45.45,0,0,0-.09.23.36.36,0,0,0,.1.24c.44.54.79,1,1.06,1.37a4.53,4.53,0,0,0-.39.92L15,20.89a.32.32,0,0,0-.18.13.36.36,0,0,0-.08.23v2.21a.34.34,0,0,0,.08.23.28.28,0,0,0,.2.12l1.82.27a.88.88,0,0,1,0,.15H1.67s-.08,0-.08-.06V1.25s0-.06.08-.06H17.74V4.51c0,.69.75,1.25,1.67,1.25h4.42V15a.28.28,0,0,0-.11-.21.35.35,0,0,0-.24-.08H21.27a.34.34,0,0,0-.36.27c-.08.33-.18,1-.29,1.85A5.92,5.92,0,0,0,19.72,17.25Zm4.44,6.93a2.45,2.45,0,0,1-1.79.74,2.53,2.53,0,0,1-2.54-2.54,2.54,2.54,0,0,1,2.54-2.54,2.56,2.56,0,0,1,2.54,2.54A2.45,2.45,0,0,1,24.16,24.18Z"/><path d="M19.74,8.14H5.7a.78.78,0,0,0-.81.5c-.08.37.3.7.79.7h14a.78.78,0,0,0,.8-.5C20.6,8.47,20.22,8.14,19.74,8.14Z"/><path d="M19.74,11.77H5.7a.78.78,0,0,0-.81.5c-.08.37.3.69.79.69h14a.78.78,0,0,0,.8-.5C20.6,12.09,20.22,11.77,19.74,11.77Z"/><path d="M5.68,20.11h7a.78.78,0,0,0,.8-.5c.08-.37-.3-.69-.78-.69h-7a.78.78,0,0,0-.8.5C4.82,19.79,5.2,20.11,5.68,20.11Z"/></g></g></svg>