<svg xmlns="http://www.w3.org/2000/svg" viewBox="0 0 30 30"><title>plan</title><g id="Слой_2" data-name="Слой 2"><g id="Слой_1-2" data-name="Слой 1"><path d="M26.18,3.92h-3.4V2.71a.65.65,0,0,0-.72-.57h-3A4.18,4.18,0,0,0,15,0,4.26,4.26,0,0,0,11,2.14H8.3a.91.91,0,0,0-1,.79v1H3.82C1.77,3.94.1,5.2,0,6.81V27.28C0,28.78,1.55,30,3.45,30H26.18c2.1,0,3.82-1.35,3.82-3V6.81C29.9,5.2,28.23,3.94,26.18,3.92Zm-17-.41h2.5a.94.94,0,0,0,.87-.65A2.56,2.56,0,0,1,15,1.24a2.51,2.51,0,0,1,2.45,1.62,1,1,0,0,0,.91.65H21V6.38H9.13Zm19,23.75c0,.8-1,1.3-2,1.3H3.83a1.83,1.83,0,0,1-2-1.57V6.77a1.91,1.91,0,0,1,2-1.48H7.3V7.13a.92.92,0,0,0,1,.69H21.65a1,1,0,0,0,1.05-.69V5.29h3.47a1.91,1.91,0,0,1,2,1.48V27.26Z"/><path d="M11.53,16a1.1,1.1,0,0,0-1.27,0L7.35,18.1l-1.23-1a1.1,1.1,0,0,0-1.27,0,.65.65,0,0,0,0,1l1.86,1.5a.93.93,0,0,0,.64.21A1,1,0,0,0,8,19.6L11.53,17a.59.59,0,0,0,.05-1Z"/><path d="M24.59,17.47H14.11a.89.89,0,0,0-.92.6c-.09.45.35.84.9.84H24.57a.89.89,0,0,0,.92-.6C25.59,17.86,25.15,17.47,24.59,17.47Z"/><path d="M11.53,10.23a1.08,1.08,0,0,0-1.27,0L7.35,12.37l-1.23-1a1.08,1.08,0,0,0-1.27,0,.64.64,0,0,0,0,1l1.86,1.51a.93.93,0,0,0,.64.21A1,1,0,0,0,8,13.88l3.55-2.65a.59.59,0,0,0,.05-1Z"/><path d="M24.59,11.79H14.11a.89.89,0,0,0-.92.6c-.09.45.35.84.9.84H24.57a.89.89,0,0,0,.92-.6C25.59,12.18,25.15,11.79,24.59,11.79Z"/><path d="M11.53,21.67a1.08,1.08,0,0,0-1.27,0L7.35,23.82l-1.23-1a1.08,1.08,0,0,0-1.27,0,.65.65,0,0,0,0,1l1.86,1.5a.93.93,0,0,0,.64.21A1,1,0,0,0,8,25.32l3.55-2.65a.59.59,0,0,0,.05-1Z"/><path d="M24.59,23.22H14.11a.89.89,0,0,0-.92.6c-.09.45.35.84.9.84H24.57a.89.89,0,0,0,.92-.6C25.59,23.61,25.15,23.22,24.59,23.22Z"/></g></g></svg>