<svg fill="#ffffff" xmlns="http://www.w3.org/2000/svg" viewBox="0 0 30 30"><title>plan_manage</title><g id="Слой_2" data-name="Слой 2"><g id="Слой_1-2" data-name="Слой 1"><path d="M29.92,20.74a.38.38,0,0,0-.22-.13l-1.88-.28a5.7,5.7,0,0,0-.42-1c.12-.17.31-.41.55-.73s.43-.53.53-.68a.41.41,0,0,0,.08-.24.31.31,0,0,0-.07-.22,14.23,14.23,0,0,0-1.7-1.75.38.38,0,0,0-.25-.1.29.29,0,0,0-.22.08V6C26.23,4.57,24.76,3.45,23,3.44H20V2.38a.57.57,0,0,0-.63-.5H16.71A3.68,3.68,0,0,0,13.16,0,3.75,3.75,0,0,0,9.6,1.88H7.28a.8.8,0,0,0-.87.69v.87H3.35C1.55,3.45.08,4.57,0,6v18c0,1.32,1.36,2.39,3,2.39h12.7a.37.37,0,0,0-.08.22.39.39,0,0,0,.07.23,13.3,13.3,0,0,0,1.7,1.73.36.36,0,0,0,.25.11.37.37,0,0,0,.26-.09l1.45-1.1a6.67,6.67,0,0,0,.93.38l.28,1.89a.32.32,0,0,0,.12.22A.38.38,0,0,0,21,30h2.29a.35.35,0,0,0,.37-.29,15,15,0,0,0,.29-1.91,5.17,5.17,0,0,0,.94-.39l1.42,1.11a.48.48,0,0,0,.27.09c.15,0,.47-.24,1-.73a8.44,8.44,0,0,0,1-1.11.35.35,0,0,0,.09-.23.39.39,0,0,0-.1-.26c-.49-.6-.86-1.08-1.1-1.42a6.16,6.16,0,0,0,.4-.94l1.9-.28a.36.36,0,0,0,.21-.14.4.4,0,0,0,.08-.23V21A.46.46,0,0,0,29.92,20.74ZM8,3.08H10.2A.82.82,0,0,0,11,2.51a2.26,2.26,0,0,1,2.2-1.42,2.2,2.2,0,0,1,2.15,1.42.84.84,0,0,0,.8.57h2.27V5.6H8ZM1.6,23.67V5.94a1.67,1.67,0,0,1,1.76-1.3H6.41V6.26a.8.8,0,0,0,.88.6H19a.85.85,0,0,0,.92-.6V4.64h3a1.67,1.67,0,0,1,1.76,1.3v10.8a6.82,6.82,0,0,0-.81-.33l-.28-1.89a.32.32,0,0,0-.12-.22.38.38,0,0,0-.25-.09H21a.36.36,0,0,0-.37.29c0,.18-.1.47-.15.83H12.38a.78.78,0,0,0-.81.52c-.08.4.3.74.79.74h4.09a8.44,8.44,0,0,0-.76.85.45.45,0,0,0-.09.23.36.36,0,0,0,.1.25c.46.56.83,1,1.1,1.42a5.5,5.5,0,0,0-.4.95l-.56.08H12c-.21,0-.4.22-.43.53s.16.73.42.73h2.22v1.6a.43.43,0,0,0,.08.24.38.38,0,0,0,.22.13l1.88.27a5.49,5.49,0,0,0,.42,1,1.67,1.67,0,0,1-.12.16H3.36A1.61,1.61,0,0,1,1.6,23.67ZM19.36,16.8l-.27-.21h.78C19.7,16.66,19.53,16.72,19.36,16.8ZM24,24a2.63,2.63,0,0,1-3.72,0,2.63,2.63,0,0,1,1.86-4.48,2.5,2.5,0,0,1,1.86.77A2.62,2.62,0,0,1,24,24Z"/><path d="M10.11,14A1,1,0,0,0,9,14L6.45,15.87,5.37,15a1,1,0,0,0-1.12,0,.57.57,0,0,0,0,.91l1.64,1.32a.81.81,0,0,0,.56.19A.85.85,0,0,0,7,17.19l3.11-2.32a.51.51,0,0,0,.05-.84Z"/><path d="M10.11,9A1,1,0,0,0,9,8.94L6.45,10.85,5.37,10a1,1,0,0,0-1.12,0,.57.57,0,0,0,0,.91l1.64,1.32a.81.81,0,0,0,.56.19A.85.85,0,0,0,7,12.17l3.11-2.32A.51.51,0,0,0,10.16,9Z"/><path d="M12.36,11.6h9.19a.77.77,0,0,0,.81-.52c.08-.4-.3-.74-.79-.74H12.38a.79.79,0,0,0-.81.53C11.49,11.26,11.87,11.6,12.36,11.6Z"/><path d="M10.11,19A1,1,0,0,0,9,19L6.45,20.89,5.37,20a1,1,0,0,0-1.12,0,.57.57,0,0,0,0,.91l1.64,1.32a.81.81,0,0,0,.56.19A.85.85,0,0,0,7,22.21l3.11-2.32a.51.51,0,0,0,.05-.84Z"/></g></g></svg>