<svg fill="#ffffff" xmlns="http://www.w3.org/2000/svg" viewBox="0 0 30 30"><title>plan_edit</title><g id="Слой_2" data-name="Слой 2"><g id="Слой_1-2" data-name="Слой 1"><path d="M29.42,15.06a2,2,0,0,0-2.8,0l-.76.76V5.87c-.08-1.38-1.52-2.48-3.29-2.49H19.64v-1a.57.57,0,0,0-.63-.5H16.42A3.62,3.62,0,0,0,12.93,0,3.68,3.68,0,0,0,9.44,1.84H7.16a.79.79,0,0,0-.86.68v.86h-3C1.53,3.39.08,4.49,0,5.87V23.52c0,1.29,1.33,2.34,3,2.34H15.82l-.4.41L14.48,30l3.74-.93,3.2-3.21h1.15c1.81,0,3.29-1.16,3.29-2.59V21.42l1.69-1.69L25.86,18V16.17l2.63,2.63.93-.94A2,2,0,0,0,29.42,15.06ZM7.87,3H10a.79.79,0,0,0,.74-.55,2.21,2.21,0,0,1,2.16-1.4,2.17,2.17,0,0,1,2.12,1.4.81.81,0,0,0,.78.55h2.24V5.5H7.87ZM3.3,24.62a1.58,1.58,0,0,1-1.73-1.35V5.84A1.65,1.65,0,0,1,3.31,4.56h3V6.15a.78.78,0,0,0,.86.59h11.5a.85.85,0,0,0,.91-.59V4.56h3a1.65,1.65,0,0,1,1.73,1.28V17.39L21.58,20.1A1,1,0,0,0,21.2,20h-9a.77.77,0,0,0-.8.52c-.08.38.3.72.78.72h8.27l-3.36,3.36Zm21-1.12c0,.66-.8,1.08-1.62,1.12L24.29,23v.5Z"/><path d="M9.94,13.75a1,1,0,0,0-1.1,0L6.33,15.6l-1-.86a.93.93,0,0,0-1.1,0,.55.55,0,0,0,0,.89l1.61,1.29a.79.79,0,0,0,.54.19.85.85,0,0,0,.55-.19l3.06-2.28a.5.5,0,0,0,0-.82Z"/><path d="M12.15,16.3h9a.78.78,0,0,0,.8-.51c.08-.39-.3-.73-.78-.73h-9a.78.78,0,0,0-.8.52C11.29,16,11.67,16.3,12.15,16.3Z"/><path d="M9.94,8.82a.93.93,0,0,0-1.1,0L6.33,10.67l-1-.87a1,1,0,0,0-1.1,0,.56.56,0,0,0,0,.9L5.79,12a.85.85,0,0,0,.54.19A.91.91,0,0,0,6.88,12L9.94,9.68a.51.51,0,0,0,0-.83Z"/><path d="M12.15,11.4h9a.78.78,0,0,0,.8-.51c.08-.39-.3-.73-.78-.73h-9a.78.78,0,0,0-.8.52C11.29,11.07,11.67,11.4,12.15,11.4Z"/><path d="M9.94,18.68a1,1,0,0,0-1.1,0L6.33,20.53l-1-.86a1,1,0,0,0-1.1,0,.55.55,0,0,0,0,.89l1.61,1.3a.79.79,0,0,0,.54.18.91.91,0,0,0,.55-.18l3.06-2.28a.51.51,0,0,0,0-.83Z"/></g></g></svg>