<svg xmlns="http://www.w3.org/2000/svg" viewBox="0 0 30 30"><title>user_edit</title><g id="Слой_2" data-name="Слой 2"><g id="Слой_1-2" data-name="Слой 1"><path d="M12.79,13.92H13a6.3,6.3,0,0,0,4.43-1.64c2.43-2.32,2-6.3,2-6.68a5.37,5.37,0,0,0-3-4.85A8,8,0,0,0,13,0h-.11A8.08,8.08,0,0,0,9.48.73,5.39,5.39,0,0,0,6.39,5.6c0,.38-.44,4.36,2,6.68A6.25,6.25,0,0,0,12.79,13.92ZM8.07,5.74v0c.21-3.83,3.41-4.24,4.78-4.24h.08c1.7,0,4.58.62,4.78,4.24a.09.09,0,0,0,0,0s.44,3.67-1.56,5.59a4.49,4.49,0,0,1-3.24,1.14h-.06a4.46,4.46,0,0,1-3.23-1.14C7.63,9.42,8.06,5.77,8.07,5.74Z"/><path d="M24.75,16.93l-.07.08a3.83,3.83,0,0,0-1.68-1l-.06,0a19.53,19.53,0,0,1-5.23-2,.94.94,0,0,0-1.18.18.65.65,0,0,0,.21,1,20.94,20.94,0,0,0,5.75,2.24,2,2,0,0,1,1.05.7l-5.93,5.93a31,31,0,0,1-4.68.35,26.59,26.59,0,0,1-11.1-2.2,7.45,7.45,0,0,1-.13-1.66v-.13c.05-1.22.21-2.55,1.68-3A21.11,21.11,0,0,0,9.12,15.2a.66.66,0,0,0,.21-1A.94.94,0,0,0,8.15,14a19.4,19.4,0,0,1-5.23,2l-.06,0C.13,16.85.05,19.33,0,20.39a.53.53,0,0,1,0,.13v0A7.24,7.24,0,0,0,.32,23a.77.77,0,0,0,.33.34c.19.11,4.72,2.56,12.29,2.56,1.07,0,2.07-.05,3-.14l-.54.55L14.48,30l3.74-.93,4.84-4.84a15.89,15.89,0,0,0,2.17-.93.72.72,0,0,0,.33-.34,5,5,0,0,0,.28-1.51l1.71-1.72Z"/><path d="M29.42,15.06a2,2,0,0,0-2.8,0l-.94.94,2.81,2.8.93-.94A2,2,0,0,0,29.42,15.06Z"/></g></g></svg>