<svg fill="#ffffff" xmlns="http://www.w3.org/2000/svg" viewBox="0 0 30 30"><title>user_manage</title><g id="Слой_2" data-name="Слой 2"><g id="Слой_1-2" data-name="Слой 1"><path d="M12.79,13.92H13a6.3,6.3,0,0,0,4.43-1.64c2.43-2.32,2-6.3,2-6.68a5.37,5.37,0,0,0-3-4.85A8,8,0,0,0,13,0h-.11A8.08,8.08,0,0,0,9.48.73,5.39,5.39,0,0,0,6.39,5.6c0,.38-.44,4.36,2,6.68A6.25,6.25,0,0,0,12.79,13.92ZM8.07,5.74v0c.21-3.83,3.41-4.24,4.78-4.24h.08c1.7,0,4.58.62,4.78,4.24a.09.09,0,0,0,0,0s.44,3.67-1.56,5.59a4.49,4.49,0,0,1-3.24,1.14h-.06a4.46,4.46,0,0,1-3.23-1.14C7.63,9.42,8.06,5.77,8.07,5.74Z"/><path d="M29.92,20.9a.3.3,0,0,0-.21-.12l-1.85-.29a5.86,5.86,0,0,0-.42-1l.55-.71.51-.67a.35.35,0,0,0,.09-.23.29.29,0,0,0-.08-.22A12.78,12.78,0,0,0,26.85,16a.38.38,0,0,0-.25-.1.33.33,0,0,0-.25.09L24.92,17a3.07,3.07,0,0,0-.42-.17,3,3,0,0,0-.52-.37l-.25-1.69a.32.32,0,0,0-.12-.22.37.37,0,0,0-.25-.09H21.12a.33.33,0,0,0-.36.29,5.42,5.42,0,0,0-.12.59A20.58,20.58,0,0,1,17.71,14a.94.94,0,0,0-1.18.18.65.65,0,0,0,.21,1,20.51,20.51,0,0,0,3.43,1.57,5.59,5.59,0,0,0-.63.26L18.15,16a.43.43,0,0,0-.26-.1q-.23,0-1,.72a9.33,9.33,0,0,0-1,1.08.45.45,0,0,0-.09.24.36.36,0,0,0,.1.24c.45.55.81,1,1.08,1.39a5.32,5.32,0,0,0-.4.93l-1.87.29a.28.28,0,0,0-.2.13.4.4,0,0,0-.08.23v2.24a.41.41,0,0,0,.08.24.38.38,0,0,0,.22.13l1.84.27c0,.07.06.14.08.21a31,31,0,0,1-3.77.23,26.59,26.59,0,0,1-11.1-2.2,7.45,7.45,0,0,1-.13-1.66v-.13c.05-1.22.21-2.55,1.68-3A21.11,21.11,0,0,0,9.12,15.2a.66.66,0,0,0,.21-1A.94.94,0,0,0,8.15,14a19.4,19.4,0,0,1-5.23,2l-.06,0C.13,16.85.05,19.33,0,20.39a.53.53,0,0,1,0,.13v0A7.24,7.24,0,0,0,.32,23a.77.77,0,0,0,.33.34c.19.11,4.72,2.56,12.29,2.56a32.91,32.91,0,0,0,3.57-.19l0,0-.51.67a.37.37,0,0,0-.08.24.39.39,0,0,0,.07.23,14,14,0,0,0,1.66,1.7.38.38,0,0,0,.26.11.37.37,0,0,0,.25-.09l1.42-1.09a5.78,5.78,0,0,0,.91.38l.29,1.86a.26.26,0,0,0,.11.21.38.38,0,0,0,.25.09h2.24a.34.34,0,0,0,.37-.28c.08-.34.18-1,.29-1.88a5.29,5.29,0,0,0,.92-.39l1.39,1.1a.54.54,0,0,0,.27.09c.14,0,.46-.24.95-.72a12.11,12.11,0,0,0,1-1.09.35.35,0,0,0,.09-.23.44.44,0,0,0-.1-.26c-.49-.59-.85-1.05-1.09-1.39a6.3,6.3,0,0,0,.4-.92l1.87-.28a.34.34,0,0,0,.2-.13.46.46,0,0,0,.08-.24V21.14A.41.41,0,0,0,29.92,20.9Zm-5.86,3.18a2.6,2.6,0,0,1-3.65,0,2.58,2.58,0,0,1,0-3.66,2.58,2.58,0,1,1,3.65,3.66Z"/></g></g></svg>