<svg xmlns="http://www.w3.org/2000/svg" viewBox="0 0 30 30"><title>user</title><g id="Слой_2" data-name="Слой 2"><g id="Слой_1-2" data-name="Слой 1"><path d="M14.84,16.14h.23a7.3,7.3,0,0,0,5.14-1.89C23,11.56,22.55,6.94,22.5,6.5A6.24,6.24,0,0,0,19,.87,9.2,9.2,0,0,0,15,0h-.12A9.31,9.31,0,0,0,11,.85,6.26,6.26,0,0,0,7.41,6.5c0,.44-.51,5.06,2.29,7.75A7.3,7.3,0,0,0,14.84,16.14ZM9.36,6.65s0,0,0-.05c.24-4.45,4-4.92,5.54-4.92H15c2,0,5.32.72,5.54,4.92a.07.07,0,0,0,0,.05s.52,4.27-1.8,6.49A5.27,5.27,0,0,1,15,14.47h-.07a5.23,5.23,0,0,1-3.75-1.33C8.86,10.93,9.35,6.69,9.36,6.65Z"/><path d="M30,23.83v0s0-.1,0-.15c0-1.23-.14-4.11-3.31-5l-.07,0a22.65,22.65,0,0,1-6.06-2.35,1.12,1.12,0,0,0-1.38.21.77.77,0,0,0,.25,1.17,25,25,0,0,0,6.66,2.59c1.7.51,1.89,2.06,2,3.48v.15a9.23,9.23,0,0,1-.15,1.92A30.65,30.65,0,0,1,15,28.33,30.88,30.88,0,0,1,2.12,25.78,8.64,8.64,0,0,1,2,23.86V23.7c.06-1.42.24-3,2-3.48a24.57,24.57,0,0,0,6.66-2.59.77.77,0,0,0,.25-1.17,1.1,1.1,0,0,0-1.38-.2,22.69,22.69,0,0,1-6.06,2.35H3.32c-3.17.93-3.27,3.81-3.31,5a.81.81,0,0,1,0,.16H0a8.27,8.27,0,0,0,.37,2.82A.89.89,0,0,0,.75,27C1,27.15,6.22,30,15,30s14-2.85,14.26-3a.89.89,0,0,0,.38-.39A8.66,8.66,0,0,0,30,23.83Z"/></g></g></svg>