<svg xmlns="http://www.w3.org/2000/svg" viewBox="0 0 300 100"><defs><style>.cls-1{fill:#160c69;}.cls-2{fill:#4133b7;}.cls-3{fill:#ffdd2b;}</style></defs><title>logo-full(ua)</title><g id="Слой_2" data-name="Слой 2"><g id="Слой_1-2" data-name="Слой 1"><rect class="cls-1" width="50" height="50"/><polygon class="cls-2" points="0 100 0 50 50 50 0 100"/><polygon class="cls-3" points="50 50 50 0 100 0 50 50"/><rect class="cls-1" x="250" y="50" width="50" height="50" transform="translate(550 150) rotate(180)"/><polygon class="cls-2" points="250 50 250 100 200 100 250 50"/><polygon class="cls-3" points="300 0 300 50 250 50 300 0"/><path d="M103.48,33.54a7,7,0,0,1-1.58-.19V31.27h.48l.34,1a1.44,1.44,0,0,0,.88.24,1.68,1.68,0,0,0,1-.31,2.94,2.94,0,0,0,.82-.91,12.24,12.24,0,0,0,.94-2.16l-3.67-9-1-.25v-.46h4.47v.46l-1.52.27,2.6,6.74,2.53-6.76-1.51-.25v-.46h3.59v.46l-1,.21-3.76,9.57A13.32,13.32,0,0,1,105.93,32a3.89,3.89,0,0,1-1.09,1.12A2.48,2.48,0,0,1,103.48,33.54Z"/><path d="M113.6,20.08l-1.28-.25v-.46h4.15v.46l-1.17.25v4.27l3.94-4.25-1-.27v-.46h3.4v.46l-1.2.23-2.75,2.81,3.53,5.44.94.23V29h-3.84v-.46l.88-.25-2.65-4.16L115.3,25.2v3.09l1.17.25V29h-4.15v-.46l1.28-.25Z"/><path d="M123.7,20.08l-1.1-.25v-.46h2.71l0,.56a3.16,3.16,0,0,1,1.16-.6,4.9,4.9,0,0,1,1.47-.22,3.42,3.42,0,0,1,2.85,1.28,5.8,5.8,0,0,1,1,3.68,5.87,5.87,0,0,1-1.1,3.8,3.91,3.91,0,0,1-3.18,1.34,10.47,10.47,0,0,1-2.21-.23c0,.5.06.88.06,1.16v2.61l1.68.24v.48h-4.59V33l1.22-.24Zm6.28,4a5.42,5.42,0,0,0-.64-2.93,2.18,2.18,0,0,0-2-.95,5.29,5.29,0,0,0-2,.33v7.7a10.4,10.4,0,0,0,2,.18Q130,28.4,130,24.07Z"/><path d="M137.41,19.15a3.47,3.47,0,0,1,2.32.65,2.46,2.46,0,0,1,.75,2v6.52l1.2.25V29H139l-.19-1a4.05,4.05,0,0,1-3,1.17c-1.65,0-2.47-1-2.47-2.87a3.21,3.21,0,0,1,.37-1.6,2.35,2.35,0,0,1,1.2-1,7,7,0,0,1,2.38-.36l1.44-.05v-1.5a2.41,2.41,0,0,0-.36-1.47,1.34,1.34,0,0,0-1.12-.47,3.76,3.76,0,0,0-1.88.48l-.35,1.2h-.57v-2.1A14,14,0,0,1,137.41,19.15Zm1.36,4.94-1.34,0a2.81,2.81,0,0,0-1.86.54,2.21,2.21,0,0,0-.49,1.61q0,1.8,1.47,1.8a3.88,3.88,0,0,0,1.2-.16,7.17,7.17,0,0,0,1-.4Z"/><path d="M144.1,16.76a1,1,0,0,1-.29.73.92.92,0,0,1-.72.31,1,1,0,0,1-1-1,1,1,0,0,1,.31-.73,1,1,0,0,1,.72-.29.94.94,0,0,1,.72.29A1,1,0,0,1,144.1,16.76Zm1.65,11.53,1.65.25V29h-5v-.46l1.64-.25V20.08l-1.36-.25v-.46h3.07Zm2-11.53a1,1,0,0,1-.29.73.92.92,0,0,1-.72.31,1,1,0,0,1-.73-.32,1,1,0,0,1-.29-.72A1,1,0,0,1,146,16a1,1,0,0,1,.73-.29.94.94,0,0,1,.72.29A1,1,0,0,1,147.75,16.76Z"/><path d="M149.46,20.08l-1.28-.25v-.46h4.15v.46l-1.17.25v3.57h4.51V20.08l-1.28-.25v-.46h4.15v.46l-1.16.25v8.21l1.16.25V29h-4.15v-.46l1.28-.25V24.5h-4.51v3.79l1.17.25V29h-4.15v-.46l1.28-.25Z"/><path d="M167.71,28.42a3.77,3.77,0,0,1-1.38.58,7.79,7.79,0,0,1-1.81.21q-4.68,0-4.68-5.1a5.24,5.24,0,0,1,1.19-3.7,4.41,4.41,0,0,1,3.42-1.3,15.48,15.48,0,0,1,3,.32v2.68h-.57l-.44-1.7a4.1,4.1,0,0,0-2-.48q-2.75,0-2.75,4.18a4.56,4.56,0,0,0,.84,3.1,3.3,3.3,0,0,0,2.59.93,8.81,8.81,0,0,0,2.6-.34Z"/><path d="M173,19.37v.46l-1.28.25v3.55h1.22a6.83,6.83,0,0,1,3.3.61,2.09,2.09,0,0,1,1.06,2,2.36,2.36,0,0,1-1,2.17,6.68,6.68,0,0,1-3.37.63h-4.17v-.46l1.28-.25V20.08l-1.28-.25v-.46Zm-.24,8.81a3.51,3.51,0,0,0,2.08-.46,1.71,1.71,0,0,0,.61-1.46,1.56,1.56,0,0,0-.6-1.39,3.85,3.85,0,0,0-2.09-.42h-1v3.73Z"/><path d="M179.6,20.08l-1.29-.25v-.46h4.16v.46l-1.17.25v4.27l3.93-4.25-1-.27v-.46h3.4v.46l-1.2.23-2.74,2.81,3.52,5.44.95.23V29h-3.85v-.46l.88-.25-2.64-4.16L181.3,25.2v3.09l1.17.25V29h-4.16v-.46l1.29-.25Z"/><path d="M192.59,19.15a3.49,3.49,0,0,1,2.32.65,2.49,2.49,0,0,1,.74,2v6.52l1.2.25V29h-2.64l-.2-1a4,4,0,0,1-3,1.17c-1.65,0-2.47-1-2.47-2.87a3.11,3.11,0,0,1,.37-1.6,2.35,2.35,0,0,1,1.2-1,7,7,0,0,1,2.37-.36l1.45-.05v-1.5a2.41,2.41,0,0,0-.36-1.47,1.36,1.36,0,0,0-1.13-.47,3.72,3.72,0,0,0-1.87.48l-.35,1.2h-.58v-2.1A14.11,14.11,0,0,1,192.59,19.15ZM194,24.09l-1.34,0a2.79,2.79,0,0,0-1.86.54,2.17,2.17,0,0,0-.49,1.61q0,1.8,1.47,1.8a3.92,3.92,0,0,0,1.2-.16,7.17,7.17,0,0,0,1-.4Z"/><path d="M101.8,46.5V46l1.28-.25V37.58l-1.28-.25v-.46H106v.46l-1.17.25v8.07h3.88V37.58l-1.28-.25v-.46h4.15v.46l-1.17.25v8.07h3.87V37.58l-1.29-.25v-.46h4.16v.46l-1.17.25v8.21l1.28.25v.46Z"/><path d="M119.27,37.58,118,37.33v-.46h4.15v.46l-1.17.25v4.27l3.94-4.25-1-.27v-.46h3.4v.46l-1.2.23-2.75,2.81,3.53,5.44.94.23v.46H124V46l.88-.25-2.65-4.16L121,42.7v3.09l1.17.25v.46H118V46l1.28-.25Z"/><path d="M136.45,41.63c0,3.39-1.51,5.08-4.51,5.08a4.11,4.11,0,0,1-3.29-1.3,5.74,5.74,0,0,1-1.1-3.78,5.63,5.63,0,0,1,1.1-3.73,5,5,0,0,1,6.68,0A5.53,5.53,0,0,1,136.45,41.63Zm-1.85,0a6.13,6.13,0,0,0-.64-3.21,2.26,2.26,0,0,0-2-1,2.14,2.14,0,0,0-1.95,1,6.45,6.45,0,0,0-.6,3.25,6.63,6.63,0,0,0,.61,3.3,2.12,2.12,0,0,0,1.94,1,2.22,2.22,0,0,0,2-1A6.12,6.12,0,0,0,134.6,41.63Z"/><path d="M138.46,45.62c.3,0,.58-.41.83-1.25a32.56,32.56,0,0,0,.83-4.07l.43-2.72-1.34-.25v-.46H147v.46l-1.17.25v8.21L147,46v.46H142.8V46l1.29-.25V37.72h-2.62L141,40.58a37.17,37.17,0,0,1-.78,4,4.07,4.07,0,0,1-.8,1.58,1.49,1.49,0,0,1-1.17.52,1.8,1.8,0,0,1-.62-.11,1.33,1.33,0,0,1-.42-.23l-.07-1.67h.47l.31.54a1.36,1.36,0,0,0,.2.25A.45.45,0,0,0,138.46,45.62Z"/><path d="M152.22,36.65a3.49,3.49,0,0,1,2.32.65,2.46,2.46,0,0,1,.74,2v6.52l1.2.25v.46h-2.64l-.2-1a4,4,0,0,1-3,1.17c-1.65,0-2.47-1-2.47-2.87a3.11,3.11,0,0,1,.37-1.6,2.35,2.35,0,0,1,1.2-1,7,7,0,0,1,2.38-.36l1.44-.05v-1.5a2.41,2.41,0,0,0-.36-1.47,1.36,1.36,0,0,0-1.13-.47,3.75,3.75,0,0,0-1.87.48l-.35,1.2h-.58V37A14.11,14.11,0,0,1,152.22,36.65Zm1.36,4.94-1.34,0a2.79,2.79,0,0,0-1.86.54,2.17,2.17,0,0,0-.49,1.61q0,1.8,1.47,1.8a3.92,3.92,0,0,0,1.2-.16,7.17,7.17,0,0,0,1-.4Z"/><path d="M103.82,54.83v-.46h7.5v.46l-1.16.25v8.21l1.49.16-.17,4.61h-.67L109.92,64h-6.75l-.89,4.06h-.67l-.17-4.61,1.52-.2a18.58,18.58,0,0,0,1.41-3.7,23.71,23.71,0,0,0,.74-4.47Zm.21,8.32h4.42V55.08H106a24.65,24.65,0,0,1-.64,4.35A17.8,17.8,0,0,1,104,63.15Z"/><path d="M113.79,55.08l-1.29-.25v-.46h4.16v.46l-1.17.25v6.06L120,56.26V55.08l-1.28-.25v-.46h4.15v.46l-1.17.25v8.21l1.17.25V64h-4.15v-.46l1.28-.25V57.42l-4.51,4.88v1l1.17.25V64H112.5v-.46l1.29-.25Z"/><path d="M132,63.42a3.83,3.83,0,0,1-1.39.58,7.71,7.71,0,0,1-1.8.21q-4.69,0-4.69-5.1a5.25,5.25,0,0,1,1.2-3.7,4.38,4.38,0,0,1,3.42-1.3,15.31,15.31,0,0,1,3,.32v2.68h-.56l-.44-1.7a4.1,4.1,0,0,0-2-.48c-1.84,0-2.75,1.39-2.75,4.18a4.62,4.62,0,0,0,.83,3.1,3.32,3.32,0,0,0,2.59.93A8.84,8.84,0,0,0,132,62.8Z"/><path d="M141.55,54.37v2.74H141l-.44-1.7a12.18,12.18,0,0,0-2-.19h-.39v8.07l1.37.25V64h-4.56v-.46l1.49-.25V55.22H136a12.09,12.09,0,0,0-2,.19l-.44,1.7H133V54.37Z"/><path d="M146.89,54.15a3.49,3.49,0,0,1,2.32.65,2.49,2.49,0,0,1,.74,2v6.52l1.2.25V64h-2.64l-.2-1a4,4,0,0,1-3,1.17c-1.65,0-2.47-1-2.47-2.87a3.11,3.11,0,0,1,.37-1.6,2.37,2.37,0,0,1,1.19-1,7,7,0,0,1,2.38-.36l1.45-.05v-1.5a2.34,2.34,0,0,0-.37-1.47,1.33,1.33,0,0,0-1.12-.47,3.72,3.72,0,0,0-1.87.48l-.35,1.2H144v-2.1A14,14,0,0,1,146.89,54.15Zm1.36,4.94-1.34,0a2.84,2.84,0,0,0-1.87.54,2.21,2.21,0,0,0-.48,1.61c0,1.2.49,1.8,1.46,1.8a3.94,3.94,0,0,0,1.21-.16,7.17,7.17,0,0,0,1-.4Z"/><path d="M153.1,55.08l-1.28-.25v-.46H156v.46l-1.17.25v3.57h4.51V55.08L158,54.83v-.46h4.15v.46l-1.16.25v8.21l1.16.25V64H158v-.46l1.28-.25V59.5H154.8v3.79l1.17.25V64h-4.15v-.46l1.28-.25Z"/><path d="M163.06,64v-.46l1.28-.25V55.08l-1.28-.25v-.46h4.15v.46l-1.17.25v8.07h4.51V55.08l-1.28-.25v-.46h4.15v.46l-1.17.25v8.21l1.19.16-.17,4.61h-.67l-1-4.06Z"/><path d="M177.7,63.29l1.65.25V64h-5v-.46l1.64-.25V55.08l-1.37-.25v-.46h3.07Zm.1-12.07a1.07,1.07,0,0,1-.33.78,1.11,1.11,0,0,1-1.57-1.57,1.12,1.12,0,0,1,1.9.79Z"/><path d="M181.41,55.08l-1.28-.25v-.46h4.15v.46l-1.17.25v6.06l4.51-4.88V55.08l-1.28-.25v-.46h4.16v.46l-1.17.25v8.21l1.17.25V64h-4.16v-.46l1.28-.25V57.42l-4.51,4.88v1l1.17.25V64h-4.15v-.46l1.28-.25Zm3.92-2.58a4.73,4.73,0,0,1-2.8-.68,2.68,2.68,0,0,1-1-2.19h1.69a2.38,2.38,0,0,0,.59,1.6,2,2,0,0,0,1.49.54,2,2,0,0,0,1.48-.54,2.38,2.38,0,0,0,.6-1.6h1.68a2.66,2.66,0,0,1-1,2.2A4.7,4.7,0,0,1,185.33,52.5Z"/><path d="M192.65,55.08l-1.28-.25v-.46h4.15v.46l-1.17.25v3.57h4.51V55.08l-1.28-.25v-.46h4.15v.46l-1.17.25v8.21l1.17.25V64h-4.15v-.46l1.28-.25V59.5h-4.51v3.79l1.17.25V64h-4.15v-.46l1.28-.25Z"/><path d="M211.93,59.13q0,5.09-4.52,5.08a4.09,4.09,0,0,1-3.28-1.3,5.68,5.68,0,0,1-1.1-3.78,5.57,5.57,0,0,1,1.1-3.73,5,5,0,0,1,6.68,0A5.53,5.53,0,0,1,211.93,59.13Zm-1.85,0a6.12,6.12,0,0,0-.65-3.21,2.23,2.23,0,0,0-2-1,2.13,2.13,0,0,0-1.94,1,6.45,6.45,0,0,0-.6,3.25,6.52,6.52,0,0,0,.61,3.3,2.11,2.11,0,0,0,1.93,1,2.22,2.22,0,0,0,2-1A6.12,6.12,0,0,0,210.08,59.13Z"/><path d="M220.8,57.11h-.57l-.44-1.7a12.18,12.18,0,0,0-2-.19h-1.66v8.07l1.58.25V64H213.1v-.46l1.29-.25V55.08l-1.29-.25v-.46h7.7Z"/><path d="M230.52,59.13q0,5.09-4.52,5.08a4.1,4.1,0,0,1-3.28-1.3,5.68,5.68,0,0,1-1.1-3.78,5.57,5.57,0,0,1,1.1-3.73,5,5,0,0,1,6.68,0A5.53,5.53,0,0,1,230.52,59.13Zm-1.85,0a6,6,0,0,0-.65-3.21,2.23,2.23,0,0,0-2-1,2.13,2.13,0,0,0-1.94,1,6.45,6.45,0,0,0-.6,3.25,6.52,6.52,0,0,0,.61,3.3,2.11,2.11,0,0,0,1.93,1,2.22,2.22,0,0,0,2-1A6.12,6.12,0,0,0,228.67,59.13Z"/><path d="M103.1,73.08l-1.28-.25v-.46H106v.46l-1.17.25v3.57h4.51V73.08L108,72.83v-.46h4.16v.46l-1.17.25v8.21l1.17.25V82H108v-.46l1.28-.25V77.5H104.8v3.79l1.17.25V82h-4.15v-.46l1.28-.25Z"/><path d="M117.45,72.15a3.49,3.49,0,0,1,2.32.65,2.49,2.49,0,0,1,.74,2v6.52l1.2.25V82h-2.64l-.2-1a4,4,0,0,1-3,1.17c-1.65,0-2.47-1-2.47-2.87a3.11,3.11,0,0,1,.37-1.6,2.35,2.35,0,0,1,1.2-1,7,7,0,0,1,2.37-.36l1.45,0v-1.5a2.41,2.41,0,0,0-.36-1.47,1.36,1.36,0,0,0-1.13-.47,3.72,3.72,0,0,0-1.87.48l-.35,1.2h-.58v-2.1A14.11,14.11,0,0,1,117.45,72.15Zm1.36,4.94-1.34,0a2.79,2.79,0,0,0-1.86.54,2.17,2.17,0,0,0-.49,1.61c0,1.2.49,1.8,1.46,1.8a3.94,3.94,0,0,0,1.21-.16,7.17,7.17,0,0,0,1-.4Z"/><path d="M122.38,82v-.46l1.28-.25V73.08l-1.28-.25v-.46h4.12a6.61,6.61,0,0,1,3.21.56,1.9,1.9,0,0,1,.93,1.76,2,2,0,0,1-.56,1.52,3.3,3.3,0,0,1-1.58.77v.08a4.1,4.1,0,0,1,2,.67,1.85,1.85,0,0,1,.7,1.57,2.23,2.23,0,0,1-1,2.07,7,7,0,0,1-3.41.63Zm3-5.37h1.09a3.09,3.09,0,0,0,1.79-.41,1.62,1.62,0,0,0,.56-1.39,1.41,1.41,0,0,0-.57-1.24,3.21,3.21,0,0,0-1.82-.4h-1Zm1.22,4.55a3.84,3.84,0,0,0,2.15-.45,1.7,1.7,0,0,0,.62-1.47,1.51,1.51,0,0,0-.66-1.39,4.4,4.4,0,0,0-2.24-.42h-1.09v3.73Z"/><path d="M134.42,76.34a1.38,1.38,0,0,0,1.47,1.46,10,10,0,0,0,2.41-.34V73.08L137,72.83v-.46h4.15v.46l-1.17.25v8.21l1.17.25V82H137v-.46l1.28-.25V78a11.93,11.93,0,0,1-1.85.75,4.87,4.87,0,0,1-1.33.21,2.31,2.31,0,0,1-1.78-.68,2.76,2.76,0,0,1-.63-1.95V73.08l-1.28-.25v-.46h4.16v.46l-1.17.25Z"/><path d="M146.44,72.15a3.5,3.5,0,0,1,2.33.65,2.49,2.49,0,0,1,.74,2v6.52l1.2.25V82h-2.65l-.19-1a4,4,0,0,1-3,1.17c-1.65,0-2.48-1-2.48-2.87a3.11,3.11,0,0,1,.38-1.6,2.37,2.37,0,0,1,1.19-1,7,7,0,0,1,2.38-.36l1.45,0v-1.5a2.34,2.34,0,0,0-.37-1.47,1.33,1.33,0,0,0-1.12-.47,3.78,3.78,0,0,0-1.88.48l-.34,1.2h-.58v-2.1A14,14,0,0,1,146.44,72.15Zm1.37,4.94-1.35,0a2.83,2.83,0,0,0-1.86.54,2.21,2.21,0,0,0-.48,1.61c0,1.2.49,1.8,1.46,1.8a3.94,3.94,0,0,0,1.21-.16,7.17,7.17,0,0,0,1-.4Z"/><path d="M152.66,73.08l-1.28-.25v-.46h4.15v.46l-1.17.25v3.57h4.51V73.08l-1.28-.25v-.46h4.15v.46l-1.17.25v8.21l1.17.25V82h-4.15v-.46l1.28-.25V77.5h-4.51v3.79l1.17.25V82h-4.15v-.46l1.28-.25Z"/><path d="M163.9,73.08l-1.29-.25v-.46h4.16v.46l-1.17.25v3.57h4.51V73.08l-1.28-.25v-.46H173v.46l-1.17.25v8.21l1.17.25V82h-4.15v-.46l1.28-.25V77.5H165.6v3.79l1.17.25V82h-4.16v-.46l1.29-.25Z"/><path d="M175.87,82h-2.33v-.46l.83-.23,2.28-3.76a2.8,2.8,0,0,1-1.59-.91,2.48,2.48,0,0,1-.57-1.66q0-2.61,4.08-2.61h4.18v.46l-1.28.25v8.21l1.28.25V82h-4.24v-.46l1.26-.26V77.86h-1.5Zm3.9-8.81h-1.05a2.88,2.88,0,0,0-1.82.46,1.68,1.68,0,0,0-.57,1.38c0,1.34.75,2,2.24,2h1.2Z"/></g></g></svg>