<svg xmlns="http://www.w3.org/2000/svg" viewBox="0 0 100 100"><defs><style>.cls-1{fill:#fff;}.cls-2{fill:#160c69;}.cls-3{fill:#ffdd2b;}.cls-4{fill:#4133b7;}</style></defs><title>logo(ua)</title><g id="Слой_2" data-name="Слой 2"><g id="Слой_1-2" data-name="Слой 1"><rect class="cls-1" width="100" height="100"/><path class="cls-2" d="M0,0V50H50V0ZM27.82,30.78a15.09,15.09,0,0,1-3.44,5.68,6.21,6.21,0,0,1-4.24,1.64,7.21,7.21,0,0,1-1.7-.18,7.08,7.08,0,0,1-1.14-.36,2.08,2.08,0,0,1-.48-.26l.44-2.12a2.2,2.2,0,0,0,.44.26,5.2,5.2,0,0,0,1,.34,5.82,5.82,0,0,0,1.44.16,4.58,4.58,0,0,0,2.72-.86,8.48,8.48,0,0,0,2.36-3.3l-10.4-20h3.52l8.4,16.84,6.12-16.84h2.4Z"/><path class="cls-3" d="M50,0V50h50V0ZM88.24,37.74H61.72v-26h3V35.82h8.72V11.74h3V35.82h8.72V11.74h3Z"/><path class="cls-4" d="M20.82,77.42a32.29,32.29,0,0,1-2.4,8.4H29.86V63.66H21.74A93.33,93.33,0,0,1,20.82,77.42Z"/><path class="cls-4" d="M0,50v50H50V50ZM35.42,94.5h-2L33,87.74H16.82L16.1,94.5H14.3l-.2-8.68h2.16A30.27,30.27,0,0,0,18.78,77a106.45,106.45,0,0,0,.84-15.26H32.86V85.82h3Z"/><path class="cls-2" d="M75,63.3a6.68,6.68,0,0,0-5.84,3q-2,3-2,8.52t2,8.52A6.68,6.68,0,0,0,75,86.22a6.77,6.77,0,0,0,5.9-2.92q2.06-2.92,2.06-8.52t-2.06-8.52A6.76,6.76,0,0,0,75,63.3Z"/><path class="cls-2" d="M50,50v50h50V50ZM84.82,81.92A10.21,10.21,0,0,1,81,86.54a12,12,0,0,1-12,0,10.14,10.14,0,0,1-3.82-4.62,17.7,17.7,0,0,1-1.32-7.14,17.7,17.7,0,0,1,1.32-7.14A10.24,10.24,0,0,1,69,63a11.88,11.88,0,0,1,12,0,10.32,10.32,0,0,1,3.86,4.64,17.53,17.53,0,0,1,1.34,7.14A17.53,17.53,0,0,1,84.82,81.92Z"/></g></g></svg>