<svg xmlns="http://www.w3.org/2000/svg" viewBox="0 0 300 100"><defs><style>.cls-1{fill:#160c69;}.cls-2{fill:#4133b7;}.cls-3{fill:#ffdd2b;}</style></defs><title>logo-full(ru)</title><g id="Слой_2" data-name="Слой 2"><g id="Слой_1-2" data-name="Слой 1"><path d="M89.15,33.54a7,7,0,0,1-1.58-.19V31.27h.48l.34,1a1.44,1.44,0,0,0,.88.24,1.68,1.68,0,0,0,1-.31,2.94,2.94,0,0,0,.82-.91A12.24,12.24,0,0,0,92,29.11l-3.67-9-1-.25v-.46h4.47v.46l-1.52.27,2.6,6.74,2.53-6.76-1.51-.25v-.46h3.59v.46l-1,.21-3.76,9.57A13.32,13.32,0,0,1,91.6,32a3.89,3.89,0,0,1-1.09,1.12A2.48,2.48,0,0,1,89.15,33.54Z"/><path d="M99.27,20.08,98,19.83v-.46h4.15v.46l-1.17.25v4.27l3.94-4.25-1-.27v-.46h3.4v.46l-1.2.23-2.75,2.81,3.53,5.44.94.23V29H104v-.46l.88-.25-2.65-4.16L101,25.2v3.09l1.17.25V29H98v-.46l1.28-.25Z"/><path d="M109.37,20.08l-1.1-.25v-.46H111l0,.56a3.16,3.16,0,0,1,1.16-.6,4.9,4.9,0,0,1,1.47-.22,3.42,3.42,0,0,1,2.85,1.28,5.8,5.8,0,0,1,1,3.68,5.81,5.81,0,0,1-1.1,3.8,3.89,3.89,0,0,1-3.18,1.34A10.47,10.47,0,0,1,111,29c0,.5.06.88.06,1.16v2.61l1.69.24v.48h-4.6V33l1.22-.24Zm6.28,4a5.42,5.42,0,0,0-.64-2.93,2.18,2.18,0,0,0-2-.95,5.29,5.29,0,0,0-2,.33v7.7a10.4,10.4,0,0,0,2,.18Q115.66,28.4,115.65,24.07Z"/><path d="M123.08,19.15a3.47,3.47,0,0,1,2.32.65,2.46,2.46,0,0,1,.75,2v6.52l1.2.25V29H124.7l-.19-1a4.05,4.05,0,0,1-3,1.17c-1.64,0-2.47-1-2.47-2.87a3.21,3.21,0,0,1,.37-1.6,2.35,2.35,0,0,1,1.2-1,7,7,0,0,1,2.38-.36l1.44-.05v-1.5a2.41,2.41,0,0,0-.36-1.47,1.34,1.34,0,0,0-1.12-.47,3.76,3.76,0,0,0-1.88.48l-.35,1.2h-.57v-2.1A14,14,0,0,1,123.08,19.15Zm1.36,4.94-1.34,0a2.81,2.81,0,0,0-1.86.54,2.21,2.21,0,0,0-.49,1.61q0,1.8,1.47,1.8a3.88,3.88,0,0,0,1.2-.16,7.17,7.17,0,0,0,1-.4Z"/><path d="M129.29,20.08,128,19.83v-.46h4.16v.46l-1.17.25v6.06l4.51-4.88V20.08l-1.28-.25v-.46h4.15v.46l-1.17.25v8.21l1.17.25V29h-4.15v-.46l1.28-.25V22.42L131,27.3v1l1.17.25V29H128v-.46l1.28-.25Z"/><path d="M140.53,20.08l-1.28-.25v-.46h4.15v.46l-1.16.25v3.57h4.51V20.08l-1.29-.25v-.46h4.16v.46l-1.17.25v8.21l1.17.25V29h-4.16v-.46l1.29-.25V24.5h-4.51v3.79l1.16.25V29h-4.15v-.46l1.28-.25Z"/><path d="M158.79,28.42a3.83,3.83,0,0,1-1.39.58,7.77,7.77,0,0,1-1.8.21q-4.69,0-4.69-5.1a5.29,5.29,0,0,1,1.19-3.7,4.41,4.41,0,0,1,3.42-1.3,15.33,15.33,0,0,1,3,.32v2.68H158l-.45-1.7a4.05,4.05,0,0,0-2-.48q-2.75,0-2.74,4.18a4.57,4.57,0,0,0,.83,3.1,3.32,3.32,0,0,0,2.59.93,8.84,8.84,0,0,0,2.61-.34Z"/><path d="M161.09,20.08l-1.28-.25v-.46H164v.46l-1.17.25v4.27l3.94-4.25-1-.27v-.46h3.4v.46l-1.2.23-2.75,2.81,3.53,5.44.94.23V29h-3.84v-.46l.88-.25L164,24.13l-1.25,1.07v3.09l1.17.25V29h-4.15v-.46l1.28-.25Z"/><path d="M174.08,19.15a3.5,3.5,0,0,1,2.33.65,2.49,2.49,0,0,1,.74,2v6.52l1.2.25V29H175.7l-.19-1a4,4,0,0,1-3,1.17c-1.65,0-2.48-1-2.48-2.87a3.11,3.11,0,0,1,.38-1.6,2.37,2.37,0,0,1,1.19-1,7,7,0,0,1,2.38-.36l1.45-.05v-1.5a2.34,2.34,0,0,0-.37-1.47,1.33,1.33,0,0,0-1.12-.47,3.78,3.78,0,0,0-1.88.48l-.34,1.2h-.58v-2.1A14,14,0,0,1,174.08,19.15Zm1.37,4.94-1.35,0a2.83,2.83,0,0,0-1.86.54,2.21,2.21,0,0,0-.48,1.61c0,1.2.49,1.8,1.46,1.8a3.94,3.94,0,0,0,1.21-.16,7.17,7.17,0,0,0,1-.4Z"/><path d="M181,29H178.7v-.46l.83-.23,2.29-3.76a2.8,2.8,0,0,1-1.6-.91,2.48,2.48,0,0,1-.57-1.66q0-2.61,4.08-2.61h4.19v.46l-1.29.25v8.21l1.29.25V29h-4.25v-.46l1.26-.26V24.86h-1.49Zm3.89-8.81h-1a2.86,2.86,0,0,0-1.82.46A1.68,1.68,0,0,0,181.5,22c0,1.34.74,2,2.23,2h1.2Z"/><path d="M87.47,46.5V46l1.28-.25V37.58l-1.28-.25v-.46h4.15v.46l-1.17.25v8.07h3.88V37.58l-1.28-.25v-.46H97.2v.46L96,37.58v8.07H99.9V37.58l-1.28-.25v-.46h4.15v.46l-1.17.25v8.21l1.28.25v.46Z"/><path d="M104.94,37.58l-1.28-.25v-.46h4.15v.46l-1.17.25v4.27l3.94-4.25-1-.27v-.46H113v.46l-1.2.23L109,40.37l3.53,5.44.94.23v.46h-3.84V46l.88-.25-2.65-4.16-1.25,1.07v3.09l1.17.25v.46h-4.15V46l1.28-.25Z"/><path d="M122.12,41.63c0,3.39-1.51,5.08-4.51,5.08a4.11,4.11,0,0,1-3.29-1.3,5.74,5.74,0,0,1-1.1-3.78,5.63,5.63,0,0,1,1.1-3.73,5,5,0,0,1,6.68,0A5.53,5.53,0,0,1,122.12,41.63Zm-1.85,0a6.13,6.13,0,0,0-.64-3.21,2.26,2.26,0,0,0-2-1,2.14,2.14,0,0,0-2,1,6.45,6.45,0,0,0-.6,3.25,6.63,6.63,0,0,0,.61,3.3,2.12,2.12,0,0,0,1.94,1,2.24,2.24,0,0,0,2-1A6.23,6.23,0,0,0,120.27,41.63Z"/><path d="M124.13,45.62c.3,0,.58-.41.83-1.25a32.56,32.56,0,0,0,.83-4.07l.43-2.72-1.34-.25v-.46h7.75v.46l-1.17.25v8.21l1.17.25v.46h-4.16V46l1.29-.25V37.72h-2.62l-.44,2.86a37.17,37.17,0,0,1-.78,4,4.07,4.07,0,0,1-.8,1.58,1.49,1.49,0,0,1-1.17.52,1.8,1.8,0,0,1-.62-.11,1.33,1.33,0,0,1-.42-.23l-.07-1.67h.47l.31.54a1.36,1.36,0,0,0,.2.25A.45.45,0,0,0,124.13,45.62Z"/><path d="M137.89,36.65a3.49,3.49,0,0,1,2.32.65,2.46,2.46,0,0,1,.74,2v6.52l1.2.25v.46h-2.64l-.2-1a4,4,0,0,1-3,1.17c-1.65,0-2.47-1-2.47-2.87a3.11,3.11,0,0,1,.37-1.6,2.35,2.35,0,0,1,1.2-1,7,7,0,0,1,2.38-.36l1.44-.05v-1.5a2.41,2.41,0,0,0-.36-1.47,1.36,1.36,0,0,0-1.13-.47,3.75,3.75,0,0,0-1.87.48l-.35,1.2H135V37A14.11,14.11,0,0,1,137.89,36.65Zm1.36,4.94-1.34,0a2.79,2.79,0,0,0-1.86.54,2.17,2.17,0,0,0-.49,1.61q0,1.8,1.47,1.8a3.92,3.92,0,0,0,1.2-.16,7.17,7.17,0,0,0,1-.4Z"/><path d="M89.49,54.83v-.46H97v.46l-1.17.25v8.21l1.49.16-.17,4.61h-.67L95.59,64H88.84L88,68.06h-.67l-.17-4.61,1.52-.2A18.58,18.58,0,0,0,90,59.55a23.71,23.71,0,0,0,.74-4.47Zm.21,8.32h4.42V55.08H91.66A24.65,24.65,0,0,1,91,59.43,17.8,17.8,0,0,1,89.7,63.15Z"/><path d="M99.46,55.08l-1.29-.25v-.46h4.16v.46l-1.17.25v6.06l4.51-4.88V55.08l-1.28-.25v-.46h4.15v.46l-1.17.25v8.21l1.17.25V64h-4.15v-.46l1.28-.25V57.42l-4.51,4.88v1l1.17.25V64H98.17v-.46l1.29-.25Z"/><path d="M117.71,63.42a3.83,3.83,0,0,1-1.39.58,7.71,7.71,0,0,1-1.8.21q-4.69,0-4.69-5.1a5.25,5.25,0,0,1,1.2-3.7,4.38,4.38,0,0,1,3.42-1.3,15.31,15.31,0,0,1,3,.32v2.68h-.56l-.44-1.7a4.1,4.1,0,0,0-2-.48c-1.84,0-2.75,1.39-2.75,4.18a4.62,4.62,0,0,0,.83,3.1,3.32,3.32,0,0,0,2.59.93,8.84,8.84,0,0,0,2.61-.34Z"/><path d="M127.22,54.37v2.74h-.56l-.44-1.7a12.18,12.18,0,0,0-2-.19h-.39v8.07l1.37.25V64H120.6v-.46l1.49-.25V55.22h-.38a12.09,12.09,0,0,0-2,.19l-.44,1.7h-.57V54.37Z"/><path d="M132.56,54.15a3.49,3.49,0,0,1,2.32.65,2.49,2.49,0,0,1,.74,2v6.52l1.2.25V64h-2.64l-.2-1a4,4,0,0,1-3,1.17c-1.65,0-2.47-1-2.47-2.87a3.11,3.11,0,0,1,.37-1.6,2.37,2.37,0,0,1,1.19-1,7,7,0,0,1,2.38-.36l1.45-.05v-1.5a2.34,2.34,0,0,0-.37-1.47,1.33,1.33,0,0,0-1.12-.47,3.72,3.72,0,0,0-1.87.48l-.35,1.2h-.58v-2.1A14,14,0,0,1,132.56,54.15Zm1.36,4.94-1.34,0a2.84,2.84,0,0,0-1.87.54,2.21,2.21,0,0,0-.48,1.61c0,1.2.49,1.8,1.46,1.8a3.94,3.94,0,0,0,1.21-.16,7.17,7.17,0,0,0,1-.4Z"/><path d="M138.77,55.08l-1.28-.25v-.46h4.15v.46l-1.17.25v3.57H145V55.08l-1.28-.25v-.46h4.15v.46l-1.16.25v8.21l1.16.25V64H143.7v-.46l1.28-.25V59.5h-4.51v3.79l1.17.25V64h-4.15v-.46l1.28-.25Z"/><path d="M148.73,64v-.46l1.28-.25V55.08l-1.28-.25v-.46h4.15v.46l-1.17.25v8.07h4.51V55.08l-1.28-.25v-.46h4.15v.46l-1.17.25v8.21l1.19.16-.17,4.61h-.67l-1-4.06Z"/><path d="M161.25,55.08,160,54.83v-.46h4.16v.46l-1.17.25v6.06l4.51-4.88V55.08l-1.28-.25v-.46h4.15v.46l-1.17.25v8.21l1.17.25V64h-4.15v-.46l1.28-.25V57.42L163,62.3v1l1.17.25V64H160v-.46l1.29-.25Z"/><path d="M180.52,59.13q0,5.09-4.51,5.08a4.09,4.09,0,0,1-3.28-1.3,5.68,5.68,0,0,1-1.11-3.78,5.57,5.57,0,0,1,1.11-3.73,5,5,0,0,1,6.68,0A5.53,5.53,0,0,1,180.52,59.13Zm-1.84,0a6.12,6.12,0,0,0-.65-3.21,2.23,2.23,0,0,0-2-1,2.13,2.13,0,0,0-1.94,1,6.45,6.45,0,0,0-.6,3.25,6.52,6.52,0,0,0,.61,3.3,2.11,2.11,0,0,0,1.93,1,2.24,2.24,0,0,0,2-1A6.12,6.12,0,0,0,178.68,59.13Z"/><path d="M183,55.08l-1.28-.25v-.46h4.16v.46l-1.17.25v3.57h4.51V55.08l-1.28-.25v-.46h4.15v.46l-1.17.25v8.21l1.17.25V64h-4.15v-.46l1.28-.25V59.5h-4.51v3.79l1.17.25V64H181.7v-.46l1.28-.25Z"/><path d="M194.22,55.08l-1.28-.25v-.46h4.15v.46l-1.17.25v3.57h4.52V55.08l-1.29-.25v-.46h4.16v.46l-1.17.25v8.21l1.17.25V64h-4.16v-.46l1.29-.25V59.5h-4.52v3.79l1.17.25V64h-4.15v-.46l1.28-.25Z"/><path d="M213.5,59.13q0,5.09-4.51,5.08a4.09,4.09,0,0,1-3.28-1.3,5.68,5.68,0,0,1-1.11-3.78,5.57,5.57,0,0,1,1.11-3.73,5,5,0,0,1,6.67,0A5.47,5.47,0,0,1,213.5,59.13Zm-1.85,0a6.13,6.13,0,0,0-.64-3.21,2.25,2.25,0,0,0-2-1,2.15,2.15,0,0,0-2,1,6.59,6.59,0,0,0-.59,3.25,6.52,6.52,0,0,0,.61,3.3,2.1,2.1,0,0,0,1.93,1,2.24,2.24,0,0,0,2-1A6.13,6.13,0,0,0,211.65,59.13Z"/><path d="M222.37,57.11h-.56l-.45-1.7a12,12,0,0,0-2-.19h-1.66v8.07l1.58.25V64h-4.56v-.46l1.28-.25V55.08l-1.28-.25v-.46h7.69Z"/><path d="M232.09,59.13q0,5.09-4.51,5.08a4.09,4.09,0,0,1-3.28-1.3,5.68,5.68,0,0,1-1.11-3.78,5.57,5.57,0,0,1,1.11-3.73,5,5,0,0,1,6.67,0A5.47,5.47,0,0,1,232.09,59.13Zm-1.85,0a6.13,6.13,0,0,0-.64-3.21,2.25,2.25,0,0,0-2-1,2.15,2.15,0,0,0-2,1,6.59,6.59,0,0,0-.59,3.25,6.52,6.52,0,0,0,.61,3.3,2.1,2.1,0,0,0,1.93,1,2.24,2.24,0,0,0,2-1A6.13,6.13,0,0,0,230.24,59.13Z"/><path d="M96.81,77.13q0,5.09-4.51,5.08A4.09,4.09,0,0,1,89,80.91a5.68,5.68,0,0,1-1.11-3.78A5.57,5.57,0,0,1,89,73.4a5,5,0,0,1,6.67,0A5.47,5.47,0,0,1,96.81,77.13Zm-1.85,0a6.13,6.13,0,0,0-.64-3.21,2.25,2.25,0,0,0-2-1,2.12,2.12,0,0,0-1.94.95,6.45,6.45,0,0,0-.6,3.25,6.52,6.52,0,0,0,.61,3.3,2.1,2.1,0,0,0,1.93,1,2.24,2.24,0,0,0,2-1A6.13,6.13,0,0,0,95,77.13Z"/><path d="M98.59,76.08a17.08,17.08,0,0,1,.47-4.47,5.32,5.32,0,0,1,1.48-2.56A4.67,4.67,0,0,1,103.2,68c1.17-.13,1.91-.24,2.22-.31a3.38,3.38,0,0,0,.78-.26.86.86,0,0,0,.43-.41h.52a2.87,2.87,0,0,1-.29,1.27,1.78,1.78,0,0,1-.75.71,4.33,4.33,0,0,1-1.24.37l-1.73.24a5.53,5.53,0,0,0-2,.54,2.24,2.24,0,0,0-1,1.15,11.82,11.82,0,0,0-.41,3h.08a2.86,2.86,0,0,1,1.24-1.55,3.7,3.7,0,0,1,2-.55,4,4,0,0,1,3.27,1.28,5.6,5.6,0,0,1,1.1,3.74q0,5.09-4.52,5.08C100.06,82.21,98.59,80.17,98.59,76.08Zm7.06,1a6.12,6.12,0,0,0-.65-3.21,2.23,2.23,0,0,0-2-1,2.13,2.13,0,0,0-1.94.95,6.45,6.45,0,0,0-.6,3.25q0,4.28,2.54,4.27a2.22,2.22,0,0,0,2-1A6.12,6.12,0,0,0,105.65,77.13Z"/><path d="M109.54,86.54a7,7,0,0,1-1.58-.19V84.27h.48l.34,1a1.42,1.42,0,0,0,.88.24,1.68,1.68,0,0,0,1-.31,3,3,0,0,0,.83-.91,13,13,0,0,0,.94-2.16l-3.67-9-1-.25v-.46h4.47v.46l-1.52.27,2.61,6.74,2.52-6.76-1.51-.25v-.46h3.59v.46l-1,.21-3.77,9.57A14.16,14.16,0,0,1,112,85a3.89,3.89,0,0,1-1.09,1.12A2.51,2.51,0,0,1,109.54,86.54Z"/><path d="M121.3,76.34a1.38,1.38,0,0,0,1.47,1.46,10,10,0,0,0,2.41-.34V73.08l-1.28-.25v-.46h4.15v.46l-1.17.25v8.21l1.17.25V82H123.9v-.46l1.28-.25V78a11.93,11.93,0,0,1-1.85.75A4.87,4.87,0,0,1,122,79a2.31,2.31,0,0,1-1.78-.68,2.76,2.76,0,0,1-.63-1.95V73.08l-1.28-.25v-.46h4.16v.46l-1.17.25Z"/><path d="M131.22,77.15v.19a6.13,6.13,0,0,0,.32,2.2,2.33,2.33,0,0,0,1,1.19,3.09,3.09,0,0,0,1.71.41,11.37,11.37,0,0,0,1.31-.09,11.09,11.09,0,0,0,1.25-.21v.58a4.75,4.75,0,0,1-1.34.55,6.28,6.28,0,0,1-1.73.24A4.09,4.09,0,0,1,130.42,81a5.88,5.88,0,0,1-1-3.89,5.72,5.72,0,0,1,1.05-3.76,3.74,3.74,0,0,1,3-1.24q3.7,0,3.7,4.2v.84Zm2.23-4.22a1.86,1.86,0,0,0-1.64.86,4.62,4.62,0,0,0-.57,2.54h4.13a5.31,5.31,0,0,0-.48-2.62A1.56,1.56,0,0,0,133.45,72.93Z"/><path d="M139.54,73.08l-1.28-.25v-.46h4.15v.46l-1.17.25v3.57h4.51V73.08l-1.28-.25v-.46h4.15v.46l-1.17.25v8.21l1.17.25V82h-4.15v-.46l1.28-.25V77.5h-4.51v3.79l1.17.25V82h-4.15v-.46l1.28-.25Z"/><path d="M150.78,73.08l-1.28-.25v-.46h4.15v.46l-1.17.25v6.06L157,74.26V73.08l-1.28-.25v-.46h4.15v.46l-1.17.25v8.21l1.17.25V82h-4.15v-.46l1.28-.25V75.42l-4.51,4.88v1l1.17.25V82H149.5v-.46l1.28-.25Z"/><path d="M162.75,82h-2.33v-.46l.83-.23,2.28-3.76a2.8,2.8,0,0,1-1.59-.91,2.48,2.48,0,0,1-.57-1.66q0-2.61,4.08-2.61h4.18v.46l-1.28.25v8.21l1.28.25V82h-4.24v-.46l1.26-.26V77.86h-1.5Zm3.9-8.81H165.6a2.88,2.88,0,0,0-1.82.46,1.68,1.68,0,0,0-.57,1.38c0,1.34.75,2,2.24,2h1.2Z"/><rect class="cls-1" width="50" height="50"/><polygon class="cls-2" points="0 100 0 50 50 50 0 100"/><polygon class="cls-3" points="50 50 50 0 100 0 50 50"/><rect class="cls-1" x="250" y="50" width="50" height="50" transform="translate(550 150) rotate(180)"/><polygon class="cls-2" points="250 50 250 100 200 100 250 50"/><polygon class="cls-3" points="300 0 300 50 250 50 300 0"/></g></g></svg>