<svg xmlns="http://www.w3.org/2000/svg" viewBox="0 0 100 100"><defs><style>.cls-1{fill:#fff;}.cls-2{fill:#160c69;}.cls-3{fill:#ffdd2b;}.cls-4{fill:#4133b7;}</style></defs><title>logo(en)</title><g id="Слой_2" data-name="Слой 2"><g id="Слой_1-2" data-name="Слой 1"><rect class="cls-1" width="100" height="100"/><path class="cls-2" d="M0,0V50H50V0ZM34,29.26a9.13,9.13,0,0,1-2.24,6.48q-2.23,2.4-6.72,2.4t-6.66-2.4A9,9,0,0,1,16,29.26V11.74h3V28.58a8.53,8.53,0,0,0,1.6,5.58,5.74,5.74,0,0,0,4.68,1.94,5.87,5.87,0,0,0,4.82-2,8.53,8.53,0,0,0,1.62-5.54V11.74H34Z"/><path class="cls-3" d="M50,0V50h50V0ZM81.9,34.52A7.05,7.05,0,0,1,79,37.18a9.46,9.46,0,0,1-4.36,1,10.68,10.68,0,0,1-4.32-.76,8.07,8.07,0,0,1-2.54-1.62c-.55-.57-.82-.91-.82-1l1-1.56a3.62,3.62,0,0,0,.76.9,7.34,7.34,0,0,0,2.22,1.44,8.67,8.67,0,0,0,3.58.66,5.32,5.32,0,0,0,4-1.46,5,5,0,0,0,1.44-3.62,4.13,4.13,0,0,0-.72-2.48A5.45,5.45,0,0,0,77.42,27a29.71,29.71,0,0,0-2.86-1.36,24.46,24.46,0,0,1-3.36-1.6A6.75,6.75,0,0,1,69,22a6.07,6.07,0,0,1-.88-3.42,6.77,6.77,0,0,1,2.08-5.22,7.85,7.85,0,0,1,5.56-1.94,9.12,9.12,0,0,1,3.1.5A9.57,9.57,0,0,1,81.12,13a3.85,3.85,0,0,1,.84.66l-.4,1.76a3.46,3.46,0,0,0-.8-.64,9.64,9.64,0,0,0-2-1A7.62,7.62,0,0,0,76,13.22a4.83,4.83,0,0,0-3.52,1.24,4.48,4.48,0,0,0-1.28,3.36,4.09,4.09,0,0,0,.7,2.46,5.45,5.45,0,0,0,1.76,1.58,26.08,26.08,0,0,0,2.82,1.32,25.85,25.85,0,0,1,3.4,1.66A6.87,6.87,0,0,1,82,27a6.53,6.53,0,0,1,.9,3.6A7.42,7.42,0,0,1,81.9,34.52Z"/><path class="cls-4" d="M0,50v50H50V50ZM32.74,84.42Q29.68,87.73,24,87.74H16.08v-26H24q5.59,0,8.7,3.38t3.1,9.7Q35.8,81.11,32.74,84.42Z"/><path class="cls-4" d="M24,63.66H19.12V85.82H24q8.48,0,8.48-11Q32.52,63.66,24,63.66Z"/><path class="cls-2" d="M50,50v50h50V50ZM83.5,87.74H68.62v-26h14v1.92h-11v10h10V75.5h-10V85.82H83.5Z"/></g></g></svg>