<svg xmlns="http://www.w3.org/2000/svg" viewBox="0 0 300 100"><defs><style>.cls-1{fill:#160c69;}.cls-2{fill:#4133b7;}.cls-3{fill:#ffdd2b;}</style></defs><title>logo-full(en)</title><g id="Слой_2" data-name="Слой 2"><g id="Слой_1-2" data-name="Слой 1"><rect class="cls-1" width="50" height="50"/><polygon class="cls-2" points="0 100 0 50 50 50 0 100"/><polygon class="cls-3" points="50 50 50 0 100 0 50 50"/><rect class="cls-1" x="250" y="50" width="50" height="50" transform="translate(550 150) rotate(180)"/><polygon class="cls-2" points="250 50 250 100 200 100 250 50"/><polygon class="cls-3" points="300 0 300 50 250 50 300 0"/><path d="M122.39,26.26c0,1.17.55,1.76,1.64,1.76a8.66,8.66,0,0,0,2.38-.32V20.08L125,19.83v-.46h3.15v8.92l1.22.25V29h-2.81l-.09-.78a8.75,8.75,0,0,1-1.68.7,5.79,5.79,0,0,1-1.6.29c-1.64,0-2.46-.94-2.46-2.83v-6.3l-1.23-.25v-.46h2.93Z"/><path d="M133.21,24.36l3.95-4.26-1-.27v-.46h3.41v.46l-1.2.23-2.75,2.81,3.53,5.44,1,.23V29h-3.94v-.46l.88-.25-2.65-4.16-1.26,1.39v2.77l1,.25V29h-4v-.46l1.22-.25V15.14l-1.43-.25v-.46h3.13Z"/><path d="M147,19.11v2.6h-.44L146,20.58a6.7,6.7,0,0,0-1.22.14,6.21,6.21,0,0,0-1.21.37v7.2l1.65.25V29H140.6v-.46l1.23-.25V20.08l-1.23-.25v-.46h2.81l.1,1.19a7.12,7.12,0,0,1,1.66-1,4.49,4.49,0,0,1,1.67-.47Z"/><path d="M152,19.15a3.49,3.49,0,0,1,2.32.65,2.49,2.49,0,0,1,.74,2v6.52l1.2.25V29h-2.64l-.2-1a4,4,0,0,1-3,1.17c-1.65,0-2.47-1-2.47-2.87a3.11,3.11,0,0,1,.37-1.6,2.37,2.37,0,0,1,1.19-1,7,7,0,0,1,2.38-.36l1.45-.05v-1.5A2.41,2.41,0,0,0,153,20.4a1.36,1.36,0,0,0-1.13-.47,3.72,3.72,0,0,0-1.87.48l-.35,1.2H149v-2.1A14,14,0,0,1,152,19.15Zm1.36,4.94-1.34,0a2.79,2.79,0,0,0-1.86.54,2.17,2.17,0,0,0-.49,1.61c0,1.2.49,1.8,1.46,1.8a3.94,3.94,0,0,0,1.21-.16,7.17,7.17,0,0,0,1-.4Z"/><path d="M160.28,28.29l1.65.25V29h-5v-.46l1.64-.25V20.08l-1.36-.25v-.46h3.06Zm.1-12.07a1.06,1.06,0,0,1-.32.78,1.12,1.12,0,0,1-.79.32,1.1,1.1,0,0,1-.78-.32,1.12,1.12,0,0,1,.78-1.9,1.09,1.09,0,0,1,.79.33A1.06,1.06,0,0,1,160.38,16.22Z"/><path d="M165.66,20.14a9.1,9.1,0,0,1,1.68-.74,5.08,5.08,0,0,1,1.48-.29,2.35,2.35,0,0,1,1.89.73,3.13,3.13,0,0,1,.64,2.11v6.34l1.16.25V29h-4.15v-.46l1.28-.25V22.13a2,2,0,0,0-.41-1.33,1.6,1.6,0,0,0-1.29-.49,10.66,10.66,0,0,0-2.26.3v7.68l1.3.25V29h-4.17v-.46l1.16-.25V20.08l-1.16-.25v-.46h2.75Z"/><path d="M176.62,28.29l1.65.25V29h-5v-.46l1.64-.25V20.08l-1.36-.25v-.46h3.07Zm.1-12.07a1.07,1.07,0,0,1-.33.78,1.12,1.12,0,0,1-1.57,0,1.11,1.11,0,1,1,1.9-.78Z"/><path d="M183.44,19.15a3.49,3.49,0,0,1,2.32.65,2.49,2.49,0,0,1,.74,2v6.52l1.2.25V29h-2.64l-.2-1a4,4,0,0,1-3,1.17c-1.65,0-2.47-1-2.47-2.87a3.11,3.11,0,0,1,.37-1.6,2.37,2.37,0,0,1,1.19-1,7,7,0,0,1,2.38-.36l1.45-.05v-1.5a2.34,2.34,0,0,0-.37-1.47,1.33,1.33,0,0,0-1.12-.47,3.72,3.72,0,0,0-1.87.48l-.35,1.2h-.58v-2.1A14,14,0,0,1,183.44,19.15Zm1.36,4.94-1.34,0a2.84,2.84,0,0,0-1.87.54,2.21,2.21,0,0,0-.48,1.61c0,1.2.49,1.8,1.46,1.8a3.94,3.94,0,0,0,1.21-.16,7.17,7.17,0,0,0,1-.4Z"/><path d="M191.31,20.14A9.73,9.73,0,0,1,193,19.4a5.14,5.14,0,0,1,1.49-.29,2.38,2.38,0,0,1,1.89.73A3.13,3.13,0,0,1,197,22v6.34l1.17.25V29H194v-.46l1.28-.25V22.13a2,2,0,0,0-.42-1.33,1.56,1.56,0,0,0-1.28-.49,10.74,10.74,0,0,0-2.27.3v7.68l1.3.25V29h-4.16v-.46l1.16-.25V20.08l-1.16-.25v-.46h2.75Z"/><path d="M126.6,43.8a2.62,2.62,0,0,1-.91,2.17,4.18,4.18,0,0,1-2.68.74,9.42,9.42,0,0,1-1.59-.15,8.05,8.05,0,0,1-1.35-.33V43.86h.46l.5,1.34a2.84,2.84,0,0,0,2,.7c1.33,0,2-.57,2-1.7,0-.84-.52-1.43-1.57-1.79l-.91-.29a5.71,5.71,0,0,1-1.51-.69,2.42,2.42,0,0,1-.73-.86,2.68,2.68,0,0,1-.25-1.22,2.48,2.48,0,0,1,.86-2,3.51,3.51,0,0,1,2.34-.73,13.34,13.34,0,0,1,2.65.32V39h-.48L125,37.91a2.55,2.55,0,0,0-1.71-.48,1.79,1.79,0,0,0-1.27.41,1.45,1.45,0,0,0-.44,1.11,1.36,1.36,0,0,0,.4,1,3,3,0,0,0,1.19.67,17.14,17.14,0,0,1,2,.75,2.74,2.74,0,0,1,.79.58,2.54,2.54,0,0,1,.5.78A2.89,2.89,0,0,1,126.6,43.8Z"/><path d="M136,45.92a3.7,3.7,0,0,1-1.38.58,7.79,7.79,0,0,1-1.81.21q-4.68,0-4.68-5.1a5.24,5.24,0,0,1,1.19-3.7,4.41,4.41,0,0,1,3.42-1.3,15.48,15.48,0,0,1,3,.32v2.68h-.57l-.44-1.7a4.1,4.1,0,0,0-2-.48q-2.75,0-2.75,4.18a4.56,4.56,0,0,0,.84,3.1,3.3,3.3,0,0,0,2.59.93,8.81,8.81,0,0,0,2.6-.34Z"/><path d="M140,36.11a11,11,0,0,1-.07,1.53,8.66,8.66,0,0,1,1.68-.72,5.07,5.07,0,0,1,1.58-.31,2.38,2.38,0,0,1,1.89.73,3.13,3.13,0,0,1,.63,2.11v6.34l1.17.25v.46h-4.15V46l1.28-.25V39.57a1.53,1.53,0,0,0-1.7-1.76,10.83,10.83,0,0,0-2.31.3v7.68l1.3.25v.46H137.1V46l1.22-.25V32.64l-1.44-.25v-.46H140Z"/><path d="M156.88,41.63c0,3.39-1.51,5.08-4.51,5.08a4.11,4.11,0,0,1-3.29-1.3,5.74,5.74,0,0,1-1.1-3.78,5.63,5.63,0,0,1,1.1-3.73,5,5,0,0,1,6.68,0A5.53,5.53,0,0,1,156.88,41.63Zm-1.85,0a6.13,6.13,0,0,0-.64-3.21,2.25,2.25,0,0,0-2-1,2.14,2.14,0,0,0-2,1,6.45,6.45,0,0,0-.6,3.25,6.63,6.63,0,0,0,.61,3.3,2.12,2.12,0,0,0,1.94,1,2.24,2.24,0,0,0,2-1A6.23,6.23,0,0,0,155,41.63Z"/><path d="M167.38,41.63c0,3.39-1.51,5.08-4.51,5.08a4.11,4.11,0,0,1-3.29-1.3,5.74,5.74,0,0,1-1.1-3.78,5.63,5.63,0,0,1,1.1-3.73,5,5,0,0,1,6.68,0A5.53,5.53,0,0,1,167.38,41.63Zm-1.85,0a6.13,6.13,0,0,0-.64-3.21,2.25,2.25,0,0,0-2-1,2.14,2.14,0,0,0-2,1,6.45,6.45,0,0,0-.6,3.25,6.63,6.63,0,0,0,.61,3.3,2.12,2.12,0,0,0,1.94,1,2.24,2.24,0,0,0,2-1A6.23,6.23,0,0,0,165.53,41.63Z"/><path d="M171.94,45.79l1.65.25v.46h-5V46l1.64-.25V32.64l-1.64-.25v-.46h3.34Z"/><path d="M189,41.63q0,5.09-4.51,5.08a4.09,4.09,0,0,1-3.28-1.3,5.68,5.68,0,0,1-1.11-3.78,5.57,5.57,0,0,1,1.11-3.73,4.19,4.19,0,0,1,3.36-1.29,4.15,4.15,0,0,1,3.31,1.27A5.47,5.47,0,0,1,189,41.63Zm-1.84,0a6.12,6.12,0,0,0-.65-3.21,2.23,2.23,0,0,0-2-1,2.12,2.12,0,0,0-1.94,1,6.45,6.45,0,0,0-.6,3.25,6.52,6.52,0,0,0,.61,3.3,2.1,2.1,0,0,0,1.93,1,2.24,2.24,0,0,0,2-1A6.12,6.12,0,0,0,187.12,41.63Z"/><path d="M192.07,37.73h-1.66v-.51l1.66-.4v-.67a5.41,5.41,0,0,1,.85-3.28,2.76,2.76,0,0,1,2.37-1.15,5.21,5.21,0,0,1,1.46.19V34h-.5l-.46-1.26a1.59,1.59,0,0,0-.84-.21.93.93,0,0,0-.91.57,5.79,5.79,0,0,0-.27,2.16v1.6h2.56v.86h-2.56v8l2.08.34v.46h-5.21V46l1.43-.34Z"/><path d="M126.6,63.29a4.25,4.25,0,0,1-2.71.92c-2.63,0-4-1.65-4-4.93a5.82,5.82,0,0,1,1.12-3.85,4.07,4.07,0,0,1,3.29-1.32,11.61,11.61,0,0,1,2.25.23,13.63,13.63,0,0,1-.06-1.7v-2.5l-1.62-.25v-.46h3.32V63.29l1.19.25V64h-2.71Zm-4.81-4a5.14,5.14,0,0,0,.66,2.9,2.25,2.25,0,0,0,2,1,5.15,5.15,0,0,0,2.08-.4V55.12a11.82,11.82,0,0,0-2.08-.17Q121.79,55,121.79,59.28Z"/><path d="M133.47,63.29l1.65.25V64h-5v-.46l1.64-.25V55.08l-1.37-.25v-.46h3.07Zm.1-12.07a1.07,1.07,0,0,1-.33.78,1.11,1.11,0,0,1-1.57-1.57,1.12,1.12,0,0,1,1.9.79Z"/><path d="M142.93,61.3a2.62,2.62,0,0,1-.91,2.17,4.16,4.16,0,0,1-2.68.74,9.4,9.4,0,0,1-1.58-.15,8.21,8.21,0,0,1-1.36-.33V61.36h.46l.5,1.34a2.85,2.85,0,0,0,2,.7c1.33,0,2-.57,2-1.7,0-.84-.52-1.43-1.57-1.79l-.91-.29a5.87,5.87,0,0,1-1.51-.69,2.39,2.39,0,0,1-.72-.86,2.68,2.68,0,0,1-.26-1.22,2.49,2.49,0,0,1,.87-2,3.49,3.49,0,0,1,2.34-.73,13.43,13.43,0,0,1,2.65.32v2.1h-.49l-.43-1.12a2.53,2.53,0,0,0-1.71-.48,1.81,1.81,0,0,0-1.27.41,1.44,1.44,0,0,0-.43,1.11,1.35,1.35,0,0,0,.39,1,3,3,0,0,0,1.2.67,18,18,0,0,1,2,.75,2.69,2.69,0,0,1,.78.58,2.37,2.37,0,0,1,.5.78A2.89,2.89,0,0,1,142.93,61.3Z"/><path d="M147.12,64.21a1.83,1.83,0,0,1-1.48-.59,2.51,2.51,0,0,1-.48-1.64V55.23H143.9v-.47l1.28-.39,1-2.19h.65v2.19h2.2v.86h-2.2V61.8a1.46,1.46,0,0,0,.3,1,1,1,0,0,0,.8.34A7.76,7.76,0,0,0,149.4,63v.66a3.05,3.05,0,0,1-1,.41A5.29,5.29,0,0,1,147.12,64.21Z"/><path d="M154.29,54.15a3.5,3.5,0,0,1,2.33.65,2.49,2.49,0,0,1,.74,2v6.52l1.2.25V64h-2.65l-.19-1a4,4,0,0,1-3,1.17c-1.65,0-2.48-1-2.48-2.87a3.11,3.11,0,0,1,.38-1.6,2.37,2.37,0,0,1,1.19-1,7,7,0,0,1,2.38-.36l1.45-.05v-1.5a2.34,2.34,0,0,0-.37-1.47,1.33,1.33,0,0,0-1.12-.47,3.78,3.78,0,0,0-1.88.48l-.34,1.2h-.58v-2.1A14,14,0,0,1,154.29,54.15Zm1.37,4.94-1.35,0a2.83,2.83,0,0,0-1.86.54,2.21,2.21,0,0,0-.48,1.61c0,1.2.49,1.8,1.46,1.8a3.94,3.94,0,0,0,1.21-.16,7.17,7.17,0,0,0,1-.4Z"/><path d="M162.17,55.14a9.73,9.73,0,0,1,1.68-.74,5.14,5.14,0,0,1,1.49-.29,2.34,2.34,0,0,1,1.88.73,3.08,3.08,0,0,1,.64,2.11v6.34l1.17.25V64h-4.15v-.46l1.28-.25V57.13a2,2,0,0,0-.42-1.33,1.56,1.56,0,0,0-1.28-.49,10.66,10.66,0,0,0-2.27.3v7.68l1.3.25V64h-4.16v-.46l1.16-.25V55.08l-1.16-.25v-.46h2.75Z"/><path d="M178,63.42a3.77,3.77,0,0,1-1.38.58,7.79,7.79,0,0,1-1.81.21q-4.68,0-4.68-5.1a5.24,5.24,0,0,1,1.19-3.7,4.41,4.41,0,0,1,3.42-1.3,15.48,15.48,0,0,1,3,.32v2.68h-.57l-.44-1.7a4.1,4.1,0,0,0-2-.48q-2.75,0-2.75,4.18a4.56,4.56,0,0,0,.84,3.1,3.3,3.3,0,0,0,2.59.93,8.77,8.77,0,0,0,2.6-.34Z"/><path d="M181.33,59.15v.19a6.13,6.13,0,0,0,.32,2.2,2.38,2.38,0,0,0,1,1.19,3.09,3.09,0,0,0,1.71.41,11.37,11.37,0,0,0,1.31-.09,10.7,10.7,0,0,0,1.25-.21v.58a4.75,4.75,0,0,1-1.34.55,6.28,6.28,0,0,1-1.73.24A4.09,4.09,0,0,1,180.53,63a5.88,5.88,0,0,1-1-3.89,5.72,5.72,0,0,1,1-3.76,3.74,3.74,0,0,1,3-1.24q3.7,0,3.7,4.2v.84Zm2.23-4.22a1.86,1.86,0,0,0-1.64.86,4.62,4.62,0,0,0-.57,2.54h4.13a5.31,5.31,0,0,0-.48-2.62A1.56,1.56,0,0,0,183.56,54.93Z"/><path d="M121.85,77.15v.19a6.16,6.16,0,0,0,.31,2.2,2.4,2.4,0,0,0,1,1.19,3.08,3.08,0,0,0,1.7.41,11.52,11.52,0,0,0,1.32-.09,11.09,11.09,0,0,0,1.25-.21v.58a4.88,4.88,0,0,1-1.34.55,6.28,6.28,0,0,1-1.73.24A4.07,4.07,0,0,1,121.05,81a5.88,5.88,0,0,1-1-3.89,5.72,5.72,0,0,1,1.06-3.76,3.73,3.73,0,0,1,3-1.24c2.46,0,3.7,1.4,3.7,4.2v.84Zm2.23-4.22a1.85,1.85,0,0,0-1.64.86,4.62,4.62,0,0,0-.57,2.54H126a5.33,5.33,0,0,0-.47-2.62A1.57,1.57,0,0,0,124.08,72.93Z"/><path d="M135.92,81.29a4.25,4.25,0,0,1-2.71.92c-2.63,0-4-1.65-4-4.93a5.82,5.82,0,0,1,1.12-3.85,4.07,4.07,0,0,1,3.29-1.32,11.61,11.61,0,0,1,2.25.23,13.63,13.63,0,0,1-.06-1.7v-2.5l-1.62-.25v-.46h3.32V81.29l1.19.25V82H136Zm-4.81-4a5.14,5.14,0,0,0,.66,2.9,2.25,2.25,0,0,0,2,1,5.15,5.15,0,0,0,2.08-.4V73.12a11.82,11.82,0,0,0-2.08-.17Q131.11,73,131.11,77.28Z"/><path d="M142.21,79.26c0,1.17.55,1.76,1.65,1.76a8.59,8.59,0,0,0,2.37-.32V73.08l-1.45-.25v-.46h3.15v8.92l1.22.25V82h-2.81l-.09-.78a8.75,8.75,0,0,1-1.68.7,5.79,5.79,0,0,1-1.6.29c-1.64,0-2.46-.94-2.46-2.83v-6.3l-1.23-.25v-.46h2.93Z"/><path d="M158.18,81.42a3.85,3.85,0,0,1-1.38.58,7.79,7.79,0,0,1-1.81.21c-3.12,0-4.69-1.7-4.69-5.1a5.25,5.25,0,0,1,1.2-3.7,4.41,4.41,0,0,1,3.42-1.3,15.31,15.31,0,0,1,3,.32v2.68h-.56l-.44-1.7a4.1,4.1,0,0,0-2-.48q-2.75,0-2.75,4.18a4.56,4.56,0,0,0,.84,3.1,3.3,3.3,0,0,0,2.59.93,8.81,8.81,0,0,0,2.6-.34Z"/><path d="M163.59,72.15a3.5,3.5,0,0,1,2.33.65,2.49,2.49,0,0,1,.74,2v6.52l1.2.25V82h-2.65L165,81a4,4,0,0,1-3,1.17c-1.65,0-2.48-1-2.48-2.87a3.11,3.11,0,0,1,.38-1.6,2.37,2.37,0,0,1,1.19-1,7,7,0,0,1,2.38-.36l1.45,0v-1.5a2.34,2.34,0,0,0-.37-1.47,1.33,1.33,0,0,0-1.12-.47,3.78,3.78,0,0,0-1.88.48l-.34,1.2h-.58v-2.1A14,14,0,0,1,163.59,72.15ZM165,77.09l-1.35,0a2.83,2.83,0,0,0-1.86.54,2.21,2.21,0,0,0-.48,1.61c0,1.2.48,1.8,1.46,1.8a3.94,3.94,0,0,0,1.21-.16,7.17,7.17,0,0,0,1-.4Z"/><path d="M171.57,82.21a1.81,1.81,0,0,1-1.47-.59,2.51,2.51,0,0,1-.49-1.64V73.23h-1.26v-.47l1.28-.39,1-2.19h.65v2.19h2.2v.86h-2.2V79.8a1.46,1.46,0,0,0,.3,1,1,1,0,0,0,.79.34,7.77,7.77,0,0,0,1.45-.16v.66a3.12,3.12,0,0,1-1,.41A5.29,5.29,0,0,1,171.57,82.21Z"/><path d="M177.76,81.29l1.66.25V82h-5v-.46l1.64-.25V73.08l-1.36-.25v-.46h3.06Zm.11-12.07a1.07,1.07,0,0,1-.33.78A1.12,1.12,0,0,1,176,70a1.11,1.11,0,1,1,1.9-.78Z"/><path d="M189.52,77.13q0,5.09-4.52,5.08a4.09,4.09,0,0,1-3.28-1.3,5.68,5.68,0,0,1-1.1-3.78,5.57,5.57,0,0,1,1.1-3.73,5,5,0,0,1,6.68,0A5.53,5.53,0,0,1,189.52,77.13Zm-1.85,0a6,6,0,0,0-.65-3.21,2.23,2.23,0,0,0-2-1,2.13,2.13,0,0,0-1.94.95,6.45,6.45,0,0,0-.6,3.25,6.52,6.52,0,0,0,.61,3.3,2.11,2.11,0,0,0,1.93,1,2.22,2.22,0,0,0,2-1A6.12,6.12,0,0,0,187.67,77.13Z"/><path d="M193.64,73.14a9.1,9.1,0,0,1,1.68-.74,5.08,5.08,0,0,1,1.49-.29,2.34,2.34,0,0,1,1.88.73,3.08,3.08,0,0,1,.64,2.11v6.34l1.17.25V82h-4.16v-.46l1.29-.25V75.13a2,2,0,0,0-.42-1.33,1.58,1.58,0,0,0-1.29-.49,10.66,10.66,0,0,0-2.26.3v7.68l1.3.25V82H190.8v-.46l1.16-.25V73.08l-1.16-.25v-.46h2.75Z"/></g></g></svg>